<?xml version="1.0" encoding="UTF-8" standalone="no"?>
<!DOCTYPE svg PUBLIC "-//W3C//DTD SVG 1.1//EN"
 "http://www.w3.org/Graphics/SVG/1.1/DTD/svg11.dtd">
<!-- Generated by graphviz version 2.43.0 (0)
 -->
<!-- Title: b Pages: 1 -->
<svg width="675pt" height="1304pt"
 viewBox="0.00 0.00 674.70 1304.20" xmlns="http://www.w3.org/2000/svg" xmlns:xlink="http://www.w3.org/1999/xlink">
<g id="graph0" class="graph" transform="scale(1 1) rotate(0) translate(21.6 1282.6)">
<title>b</title>
<polygon fill="white" stroke="transparent" points="-21.6,21.6 -21.6,-1282.6 653.1,-1282.6 653.1,21.6 -21.6,21.6"/>
<text text-anchor="start" x="57.75" y="-1242.8" font-family="Helvetica,sans-Serif" font-weight="bold" font-size="19.00" fill="#13294a">Diagrama de flujo — Rol Administrador / Bodega</text>
<text text-anchor="start" x="243.25" y="-1230.2" font-family="Helvetica,sans-Serif" font-size="11.00" fill="#555555">Sistema Disensa Prioridad</text>
<!-- inicio -->
<g id="node1" class="node">
<title>inicio</title>
<ellipse fill="#13294a" stroke="black" stroke-width="1.2" cx="225.5" cy="-1192.5" rx="30.5" ry="30.5"/>
<text text-anchor="middle" x="225.5" y="-1189.7" font-family="Helvetica,sans-Serif" font-size="11.00" fill="white">INICIO</text>
</g>
<!-- login -->
<g id="node3" class="node">
<title>login</title>
<path fill="#dbe7f7" stroke="#17365d" stroke-width="1.2" d="M302,-1126C302,-1126 149,-1126 149,-1126 143,-1126 137,-1120 137,-1114 137,-1114 137,-1102 137,-1102 137,-1096 143,-1090 149,-1090 149,-1090 302,-1090 302,-1090 308,-1090 314,-1096 314,-1102 314,-1102 314,-1114 314,-1114 314,-1120 308,-1126 302,-1126"/>
<text text-anchor="middle" x="225.5" y="-1111.4" font-family="Helvetica,sans-Serif" font-size="12.00">Inicia sesión</text>
<text text-anchor="middle" x="225.5" y="-1098.4" font-family="Helvetica,sans-Serif" font-size="12.00">(rol administrador/bodega)</text>
</g>
<!-- inicio&#45;&gt;login -->
<g id="edge1" class="edge">
<title>inicio&#45;&gt;login</title>
<path fill="none" stroke="#4a5568" stroke-width="1.3" d="M225.5,-1161.72C225.5,-1152.72 225.5,-1142.92 225.5,-1134.25"/>
<polygon fill="#4a5568" stroke="#4a5568" stroke-width="1.3" points="228.3,-1134.02 225.5,-1126.02 222.7,-1134.02 228.3,-1134.02"/>
</g>
<!-- fin -->
<g id="node2" class="node">
<title>fin</title>
<ellipse fill="#13294a" stroke="black" stroke-width="1.2" cx="196.5" cy="-31" rx="27" ry="27"/>
<ellipse fill="none" stroke="black" stroke-width="1.2" cx="196.5" cy="-31" rx="31" ry="31"/>
<text text-anchor="middle" x="196.5" y="-28.2" font-family="Helvetica,sans-Serif" font-size="11.00" fill="white">FIN</text>
</g>
<!-- panel -->
<g id="node4" class="node">
<title>panel</title>
<path fill="#dbe7f7" stroke="#17365d" stroke-width="1.2" d="M321,-1054C321,-1054 130,-1054 130,-1054 124,-1054 118,-1048 118,-1042 118,-1042 118,-1030 118,-1030 118,-1024 124,-1018 130,-1018 130,-1018 321,-1018 321,-1018 327,-1018 333,-1024 333,-1030 333,-1030 333,-1042 333,-1042 333,-1048 327,-1054 321,-1054"/>
<text text-anchor="middle" x="225.5" y="-1039.4" font-family="Helvetica,sans-Serif" font-size="12.00">Revisa el tablero: cola priorizada,</text>
<text text-anchor="middle" x="225.5" y="-1026.4" font-family="Helvetica,sans-Serif" font-size="12.00">semáforo, alertas e indicadores</text>
</g>
<!-- login&#45;&gt;panel -->
<g id="edge2" class="edge">
<title>login&#45;&gt;panel</title>
<path fill="none" stroke="#4a5568" stroke-width="1.3" d="M225.5,-1089.7C225.5,-1081.39 225.5,-1071.28 225.5,-1062.14"/>
<polygon fill="#4a5568" stroke="#4a5568" stroke-width="1.3" points="228.3,-1062.1 225.5,-1054.1 222.7,-1062.1 228.3,-1062.1"/>
</g>
<!-- gestion -->
<g id="node5" class="node">
<title>gestion</title>
<path fill="#e8f2e2" stroke="#4f7d24" stroke-width="1.2" d="M619.5,-1054C619.5,-1054 377.5,-1054 377.5,-1054 371.5,-1054 365.5,-1048 365.5,-1042 365.5,-1042 365.5,-1030 365.5,-1030 365.5,-1024 371.5,-1018 377.5,-1018 377.5,-1018 619.5,-1018 619.5,-1018 625.5,-1018 631.5,-1024 631.5,-1030 631.5,-1030 631.5,-1042 631.5,-1042 631.5,-1048 625.5,-1054 619.5,-1054"/>
<text text-anchor="middle" x="498.5" y="-1039.4" font-family="Helvetica,sans-Serif" font-size="12.00">Gestiona catálogo, inventario,</text>
<text text-anchor="middle" x="498.5" y="-1026.4" font-family="Helvetica,sans-Serif" font-size="12.00">reglas de negocio y usuarios (transversal)</text>
</g>
<!-- panel&#45;&gt;gestion -->
<g id="edge5" class="edge">
<title>panel&#45;&gt;gestion</title>
<path fill="none" stroke="#4f7d24" stroke-width="1.3" stroke-dasharray="5,2" d="M333.21,-1036C343.97,-1036 354.73,-1036 365.49,-1036"/>
</g>
<!-- tomar -->
<g id="node6" class="node">
<title>tomar</title>
<path fill="#dbe7f7" stroke="#17365d" stroke-width="1.2" d="M327,-982C327,-982 124,-982 124,-982 118,-982 112,-976 112,-970 112,-970 112,-958 112,-958 112,-952 118,-946 124,-946 124,-946 327,-946 327,-946 333,-946 339,-952 339,-958 339,-958 339,-970 339,-970 339,-976 333,-982 327,-982"/>
<text text-anchor="middle" x="225.5" y="-967.4" font-family="Helvetica,sans-Serif" font-size="12.00">Toma el pedido de mayor prioridad</text>
<text text-anchor="middle" x="225.5" y="-954.4" font-family="Helvetica,sans-Serif" font-size="12.00">de la cola</text>
</g>
<!-- panel&#45;&gt;tomar -->
<g id="edge3" class="edge">
<title>panel&#45;&gt;tomar</title>
<path fill="none" stroke="#4a5568" stroke-width="1.3" d="M225.5,-1017.7C225.5,-1009.39 225.5,-999.28 225.5,-990.14"/>
<polygon fill="#4a5568" stroke="#4a5568" stroke-width="1.3" points="228.3,-990.1 225.5,-982.1 222.7,-990.1 228.3,-990.1"/>
</g>
<!-- stock -->
<g id="node7" class="node">
<title>stock</title>
<polygon fill="#fff3e0" stroke="#e1701a" stroke-width="1.2" points="225.5,-910 142.5,-876 225.5,-842 308.5,-876 225.5,-910"/>
<text text-anchor="middle" x="225.5" y="-879.4" font-family="Helvetica,sans-Serif" font-size="12.00">¿Hay stock</text>
<text text-anchor="middle" x="225.5" y="-866.4" font-family="Helvetica,sans-Serif" font-size="12.00">disponible?</text>
</g>
<!-- tomar&#45;&gt;stock -->
<g id="edge4" class="edge">
<title>tomar&#45;&gt;stock</title>
<path fill="none" stroke="#4a5568" stroke-width="1.3" d="M225.5,-945.6C225.5,-937.62 225.5,-927.8 225.5,-918.1"/>
<polygon fill="#4a5568" stroke="#4a5568" stroke-width="1.3" points="228.3,-918.03 225.5,-910.03 222.7,-918.03 228.3,-918.03"/>
</g>
<!-- repo -->
<g id="node8" class="node">
<title>repo</title>
<path fill="#fde8d8" stroke="#e1701a" stroke-width="1.2" d="M245.5,-806C245.5,-806 43.5,-806 43.5,-806 37.5,-806 31.5,-800 31.5,-794 31.5,-794 31.5,-782 31.5,-782 31.5,-776 37.5,-770 43.5,-770 43.5,-770 245.5,-770 245.5,-770 251.5,-770 257.5,-776 257.5,-782 257.5,-782 257.5,-794 257.5,-794 257.5,-800 251.5,-806 245.5,-806"/>
<text text-anchor="middle" x="144.5" y="-791.4" font-family="Helvetica,sans-Serif" font-size="12.00">Genera reposición al suministrador</text>
<text text-anchor="middle" x="144.5" y="-778.4" font-family="Helvetica,sans-Serif" font-size="12.00">(proveedor asignado al material)</text>
</g>
<!-- stock&#45;&gt;repo -->
<g id="edge7" class="edge">
<title>stock&#45;&gt;repo</title>
<path fill="none" stroke="#4a5568" stroke-width="1.3" d="M202.94,-851.04C191.46,-838.86 177.57,-824.11 166.21,-812.05"/>
<polygon fill="#4a5568" stroke="#4a5568" stroke-width="1.3" points="168.05,-809.92 160.53,-806.02 163.97,-813.76 168.05,-809.92"/>
<text text-anchor="middle" x="172.06" y="-831.55" font-family="Helvetica,sans-Serif" font-size="11.00" fill="#c62828">No </text>
</g>
<!-- despacho -->
<g id="node10" class="node">
<title>despacho</title>
<path fill="#dbe7f7" stroke="#17365d" stroke-width="1.2" d="M306.5,-662C306.5,-662 144.5,-662 144.5,-662 138.5,-662 132.5,-656 132.5,-650 132.5,-650 132.5,-638 132.5,-638 132.5,-632 138.5,-626 144.5,-626 144.5,-626 306.5,-626 306.5,-626 312.5,-626 318.5,-632 318.5,-638 318.5,-638 318.5,-650 318.5,-650 318.5,-656 312.5,-662 306.5,-662"/>
<text text-anchor="middle" x="225.5" y="-647.4" font-family="Helvetica,sans-Serif" font-size="12.00">Despacha el pedido</text>
<text text-anchor="middle" x="225.5" y="-634.4" font-family="Helvetica,sans-Serif" font-size="12.00">(descuento seguro de stock)</text>
</g>
<!-- stock&#45;&gt;despacho -->
<g id="edge6" class="edge">
<title>stock&#45;&gt;despacho</title>
<path fill="none" stroke="#4a5568" stroke-width="1.3" d="M247.81,-850.79C257.75,-838.37 268.35,-822.43 273.5,-806 288.61,-757.82 261.33,-701.17 242.09,-669.55"/>
<polygon fill="#4a5568" stroke="#4a5568" stroke-width="1.3" points="244.26,-667.74 237.64,-662.44 239.51,-670.71 244.26,-667.74"/>
<text text-anchor="middle" x="268.39" y="-753.78" font-family="Helvetica,sans-Serif" font-size="11.00" fill="#2e7d32">Sí </text>
</g>
<!-- recibe -->
<g id="node9" class="node">
<title>recibe</title>
<path fill="#fde8d8" stroke="#e1701a" stroke-width="1.2" d="M228.5,-734C228.5,-734 94.5,-734 94.5,-734 88.5,-734 82.5,-728 82.5,-722 82.5,-722 82.5,-710 82.5,-710 82.5,-704 88.5,-698 94.5,-698 94.5,-698 228.5,-698 228.5,-698 234.5,-698 240.5,-704 240.5,-710 240.5,-710 240.5,-722 240.5,-722 240.5,-728 234.5,-734 228.5,-734"/>
<text text-anchor="middle" x="161.5" y="-719.4" font-family="Helvetica,sans-Serif" font-size="12.00">Recibe la reposición</text>
<text text-anchor="middle" x="161.5" y="-706.4" font-family="Helvetica,sans-Serif" font-size="12.00">y actualiza el inventario</text>
</g>
<!-- repo&#45;&gt;recibe -->
<g id="edge8" class="edge">
<title>repo&#45;&gt;recibe</title>
<path fill="none" stroke="#4a5568" stroke-width="1.3" d="M148.7,-769.7C150.72,-761.39 153.18,-751.28 155.39,-742.14"/>
<polygon fill="#4a5568" stroke="#4a5568" stroke-width="1.3" points="158.18,-742.54 157.35,-734.1 152.74,-741.22 158.18,-742.54"/>
</g>
<!-- recibe&#45;&gt;despacho -->
<g id="edge9" class="edge">
<title>recibe&#45;&gt;despacho</title>
<path fill="none" stroke="#4a5568" stroke-width="1.3" d="M177.32,-697.7C185.46,-688.8 195.49,-677.82 204.29,-668.2"/>
<polygon fill="#4a5568" stroke="#4a5568" stroke-width="1.3" points="206.53,-669.9 209.86,-662.1 202.4,-666.12 206.53,-669.9"/>
</g>
<!-- retraso -->
<g id="node11" class="node">
<title>retraso</title>
<polygon fill="#fff3e0" stroke="#e1701a" stroke-width="1.2" points="225.5,-590 142.5,-556 225.5,-522 308.5,-556 225.5,-590"/>
<text text-anchor="middle" x="225.5" y="-559.4" font-family="Helvetica,sans-Serif" font-size="12.00">¿El pedido</text>
<text text-anchor="middle" x="225.5" y="-546.4" font-family="Helvetica,sans-Serif" font-size="12.00">se retrasó?</text>
</g>
<!-- despacho&#45;&gt;retraso -->
<g id="edge10" class="edge">
<title>despacho&#45;&gt;retraso</title>
<path fill="none" stroke="#4a5568" stroke-width="1.3" d="M225.5,-625.6C225.5,-617.62 225.5,-607.8 225.5,-598.1"/>
<polygon fill="#4a5568" stroke="#4a5568" stroke-width="1.3" points="228.3,-598.03 225.5,-590.03 222.7,-598.03 228.3,-598.03"/>
</g>
<!-- reagenda -->
<g id="node12" class="node">
<title>reagenda</title>
<path fill="#fde8d8" stroke="#e1701a" stroke-width="1.2" d="M235,-486C235,-486 74,-486 74,-486 68,-486 62,-480 62,-474 62,-474 62,-462 62,-462 62,-456 68,-450 74,-450 74,-450 235,-450 235,-450 241,-450 247,-456 247,-462 247,-462 247,-474 247,-474 247,-480 241,-486 235,-486"/>
<text text-anchor="middle" x="154.5" y="-471.4" font-family="Helvetica,sans-Serif" font-size="12.00">Reagenda la entrega</text>
<text text-anchor="middle" x="154.5" y="-458.4" font-family="Helvetica,sans-Serif" font-size="12.00">(el semáforo escala el nivel)</text>
</g>
<!-- retraso&#45;&gt;reagenda -->
<g id="edge11" class="edge">
<title>retraso&#45;&gt;reagenda</title>
<path fill="none" stroke="#4a5568" stroke-width="1.3" d="M204.96,-530.13C195.15,-518.24 183.47,-504.09 173.82,-492.4"/>
<polygon fill="#4a5568" stroke="#4a5568" stroke-width="1.3" points="175.94,-490.57 168.69,-486.19 171.62,-494.14 175.94,-490.57"/>
<text text-anchor="middle" x="179.82" y="-511.35" font-family="Helvetica,sans-Serif" font-size="11.00" fill="#c62828">Sí </text>
</g>
<!-- reporte -->
<g id="node13" class="node">
<title>reporte</title>
<polygon fill="#fff3e0" stroke="#e1701a" stroke-width="1.2" points="225.5,-414 91.5,-380 225.5,-346 359.5,-380 225.5,-414"/>
<text text-anchor="middle" x="225.5" y="-383.4" font-family="Helvetica,sans-Serif" font-size="12.00">¿El franquiciado</text>
<text text-anchor="middle" x="225.5" y="-370.4" font-family="Helvetica,sans-Serif" font-size="12.00">levantó un reporte?</text>
</g>
<!-- retraso&#45;&gt;reporte -->
<g id="edge13" class="edge">
<title>retraso&#45;&gt;reporte</title>
<path fill="none" stroke="#4a5568" stroke-width="1.3" d="M243.34,-529.06C250.84,-516.62 258.69,-501.16 262.5,-486 266.4,-470.48 266.4,-465.52 262.5,-450 259.59,-438.43 254.33,-426.69 248.67,-416.25"/>
<polygon fill="#4a5568" stroke="#4a5568" stroke-width="1.3" points="251.09,-414.83 244.71,-409.24 246.21,-417.59 251.09,-414.83"/>
<text text-anchor="middle" x="274.85" y="-473.61" font-family="Helvetica,sans-Serif" font-size="11.00" fill="#2e7d32">No </text>
</g>
<!-- reagenda&#45;&gt;reporte -->
<g id="edge12" class="edge">
<title>reagenda&#45;&gt;reporte</title>
<path fill="none" stroke="#4a5568" stroke-width="1.3" d="M168.87,-449.6C177.07,-439.66 187.65,-426.85 197.43,-415"/>
<polygon fill="#4a5568" stroke="#4a5568" stroke-width="1.3" points="199.83,-416.49 202.77,-408.54 195.51,-412.92 199.83,-416.49"/>
</g>
<!-- nc -->
<g id="node14" class="node">
<title>nc</title>
<polygon fill="#fff3e0" stroke="#e1701a" stroke-width="1.2" points="144.5,-310 31.5,-276 144.5,-242 257.5,-276 144.5,-310"/>
<text text-anchor="middle" x="144.5" y="-279.4" font-family="Helvetica,sans-Serif" font-size="12.00">¿Procede la</text>
<text text-anchor="middle" x="144.5" y="-266.4" font-family="Helvetica,sans-Serif" font-size="12.00">nota de crédito?</text>
</g>
<!-- reporte&#45;&gt;nc -->
<g id="edge14" class="edge">
<title>reporte&#45;&gt;nc</title>
<path fill="none" stroke="#4a5568" stroke-width="1.3" d="M203.58,-351.4C193.51,-338.72 181.49,-323.58 170.93,-310.28"/>
<polygon fill="#4a5568" stroke="#4a5568" stroke-width="1.3" points="173.04,-308.44 165.88,-303.92 168.66,-311.93 173.04,-308.44"/>
<text text-anchor="middle" x="177.82" y="-330.97" font-family="Helvetica,sans-Serif" font-size="11.00" fill="#c62828">Sí </text>
</g>
<!-- cierre -->
<g id="node17" class="node">
<title>cierre</title>
<path fill="#dbe7f7" stroke="#17365d" stroke-width="1.2" d="M396,-134C396,-134 217,-134 217,-134 211,-134 205,-128 205,-122 205,-122 205,-110 205,-110 205,-104 211,-98 217,-98 217,-98 396,-98 396,-98 402,-98 408,-104 408,-110 408,-110 408,-122 408,-122 408,-128 402,-134 396,-134"/>
<text text-anchor="middle" x="306.5" y="-119.4" font-family="Helvetica,sans-Serif" font-size="12.00">Marca la gestión como cerrada</text>
<text text-anchor="middle" x="306.5" y="-106.4" font-family="Helvetica,sans-Serif" font-size="12.00">(alertas se resuelven)</text>
</g>
<!-- reporte&#45;&gt;cierre -->
<g id="edge15" class="edge">
<title>reporte&#45;&gt;cierre</title>
<path fill="none" stroke="#4a5568" stroke-width="1.3" d="M248.59,-351.77C257.7,-339.68 267.42,-324.86 273.5,-310 296.75,-253.21 303.62,-180.54 305.65,-142.62"/>
<polygon fill="#4a5568" stroke="#4a5568" stroke-width="1.3" points="308.47,-142.33 306.05,-134.2 302.87,-142.06 308.47,-142.33"/>
<text text-anchor="middle" x="283.03" y="-249.25" font-family="Helvetica,sans-Serif" font-size="11.00" fill="#2e7d32">No </text>
</g>
<!-- aprobar -->
<g id="node15" class="node">
<title>aprobar</title>
<path fill="#fde8d8" stroke="#e1701a" stroke-width="1.2" d="M161,-134C161,-134 12,-134 12,-134 6,-134 0,-128 0,-122 0,-122 0,-110 0,-110 0,-104 6,-98 12,-98 12,-98 161,-98 161,-98 167,-98 173,-104 173,-110 173,-110 173,-122 173,-122 173,-128 167,-134 161,-134"/>
<text text-anchor="middle" x="86.5" y="-119.4" font-family="Helvetica,sans-Serif" font-size="12.00">Aprueba la NC: reembolsa</text>
<text text-anchor="middle" x="86.5" y="-106.4" font-family="Helvetica,sans-Serif" font-size="12.00">y cierra la gestión</text>
</g>
<!-- nc&#45;&gt;aprobar -->
<g id="edge16" class="edge">
<title>nc&#45;&gt;aprobar</title>
<path fill="none" stroke="#4a5568" stroke-width="1.3" d="M133.59,-245.28C122.66,-215.5 106.02,-170.17 95.72,-142.13"/>
<polygon fill="#4a5568" stroke="#4a5568" stroke-width="1.3" points="98.26,-140.91 92.87,-134.36 93,-142.84 98.26,-140.91"/>
<text text-anchor="middle" x="106.3" y="-193.21" font-family="Helvetica,sans-Serif" font-size="11.00" fill="#2e7d32">Sí </text>
</g>
<!-- reponer -->
<g id="node16" class="node">
<title>reponer</title>
<path fill="#fde8d8" stroke="#e1701a" stroke-width="1.2" d="M242.5,-206C242.5,-206 158.5,-206 158.5,-206 152.5,-206 146.5,-200 146.5,-194 146.5,-194 146.5,-182 146.5,-182 146.5,-176 152.5,-170 158.5,-170 158.5,-170 242.5,-170 242.5,-170 248.5,-170 254.5,-176 254.5,-182 254.5,-182 254.5,-194 254.5,-194 254.5,-200 248.5,-206 242.5,-206"/>
<text text-anchor="middle" x="200.5" y="-191.4" font-family="Helvetica,sans-Serif" font-size="12.00">Repone y envía</text>
<text text-anchor="middle" x="200.5" y="-178.4" font-family="Helvetica,sans-Serif" font-size="12.00">el material</text>
</g>
<!-- nc&#45;&gt;reponer -->
<g id="edge17" class="edge">
<title>nc&#45;&gt;reponer</title>
<path fill="none" stroke="#4a5568" stroke-width="1.3" d="M162.53,-247.32C169.77,-236.2 178.03,-223.51 184.99,-212.81"/>
<polygon fill="#4a5568" stroke="#4a5568" stroke-width="1.3" points="187.34,-214.34 189.36,-206.11 182.65,-211.29 187.34,-214.34"/>
<text text-anchor="middle" x="166.52" y="-229.8" font-family="Helvetica,sans-Serif" font-size="11.00" fill="#c62828">No </text>
</g>
<!-- aprobar&#45;&gt;fin -->
<g id="edge19" class="edge">
<title>aprobar&#45;&gt;fin</title>
<path fill="none" stroke="#4a5568" stroke-width="1.3" d="M109.29,-97.8C125.66,-85.45 147.9,-68.67 165.82,-55.15"/>
<polygon fill="#4a5568" stroke="#4a5568" stroke-width="1.3" points="167.51,-57.38 172.21,-50.33 164.14,-52.91 167.51,-57.38"/>
</g>
<!-- reponer&#45;&gt;cierre -->
<g id="edge18" class="edge">
<title>reponer&#45;&gt;cierre</title>
<path fill="none" stroke="#4a5568" stroke-width="1.3" d="M226.43,-169.88C240.68,-160.47 258.49,-148.71 273.69,-138.67"/>
<polygon fill="#4a5568" stroke="#4a5568" stroke-width="1.3" points="275.34,-140.93 280.47,-134.19 272.25,-136.26 275.34,-140.93"/>
</g>
<!-- cierre&#45;&gt;fin -->
<g id="edge20" class="edge">
<title>cierre&#45;&gt;fin</title>
<path fill="none" stroke="#4a5568" stroke-width="1.3" d="M283.71,-97.8C267.34,-85.45 245.1,-68.67 227.18,-55.15"/>
<polygon fill="#4a5568" stroke="#4a5568" stroke-width="1.3" points="228.86,-52.91 220.79,-50.33 225.49,-57.38 228.86,-52.91"/>
</g>
</g>
</svg>
