<?xml version="1.0" encoding="UTF-8" standalone="no"?>
<!DOCTYPE svg PUBLIC "-//W3C//DTD SVG 1.1//EN"
 "http://www.w3.org/Graphics/SVG/1.1/DTD/svg11.dtd">
<!-- Generated by graphviz version 2.43.0 (0)
 -->
<!-- Title: a Pages: 1 -->
<svg width="1648pt" height="775pt"
 viewBox="0.00 0.00 1647.70 775.20" xmlns="http://www.w3.org/2000/svg" xmlns:xlink="http://www.w3.org/1999/xlink">
<g id="graph0" class="graph" transform="scale(1 1) rotate(0) translate(21.6 753.6)">
<title>a</title>
<polygon fill="white" stroke="transparent" points="-21.6,21.6 -21.6,-753.6 1626.1,-753.6 1626.1,21.6 -21.6,21.6"/>
<text text-anchor="start" x="594.25" y="-713.8" font-family="Helvetica,sans-Serif" font-weight="bold" font-size="19.00" fill="#13294a">Diagrama de flujo — Rol Administrador</text>
<text text-anchor="start" x="677.25" y="-701.2" font-family="Helvetica,sans-Serif" font-size="11.00" fill="#555555">Sistema Disensa Prioridad (acceso completo)</text>
<!-- inicio -->
<g id="node1" class="node">
<title>inicio</title>
<ellipse fill="#13294a" stroke="black" stroke-width="1.2" cx="794" cy="-663.5" rx="30.5" ry="30.5"/>
<text text-anchor="middle" x="794" y="-660.7" font-family="Helvetica,sans-Serif" font-size="11.00" fill="white">INICIO</text>
</g>
<!-- login -->
<g id="node3" class="node">
<title>login</title>
<path fill="#dbe7f7" stroke="#17365d" stroke-width="1.2" d="M901,-593C901,-593 687,-593 687,-593 681,-593 675,-587 675,-581 675,-581 675,-569 675,-569 675,-563 681,-557 687,-557 687,-557 901,-557 901,-557 907,-557 913,-563 913,-569 913,-569 913,-581 913,-581 913,-587 907,-593 901,-593"/>
<text text-anchor="middle" x="794" y="-578.4" font-family="Helvetica,sans-Serif" font-size="12.00">Inicia sesión</text>
<text text-anchor="middle" x="794" y="-565.4" font-family="Helvetica,sans-Serif" font-size="12.00">(rol administrador, acceso completo)</text>
</g>
<!-- inicio&#45;&gt;login -->
<g id="edge1" class="edge">
<title>inicio&#45;&gt;login</title>
<path fill="none" stroke="#4a5568" stroke-width="1.3" d="M794,-632.73C794,-622.53 794,-611.21 794,-601.38"/>
<polygon fill="#4a5568" stroke="#4a5568" stroke-width="1.3" points="796.8,-601.2 794,-593.2 791.2,-601.2 796.8,-601.2"/>
</g>
<!-- fin -->
<g id="node2" class="node">
<title>fin</title>
<ellipse fill="#13294a" stroke="black" stroke-width="1.2" cx="1038" cy="-31" rx="27" ry="27"/>
<ellipse fill="none" stroke="black" stroke-width="1.2" cx="1038" cy="-31" rx="31" ry="31"/>
<text text-anchor="middle" x="1038" y="-28.2" font-family="Helvetica,sans-Serif" font-size="11.00" fill="white">FIN</text>
</g>
<!-- panel -->
<g id="node4" class="node">
<title>panel</title>
<path fill="#dbe7f7" stroke="#17365d" stroke-width="1.2" d="M899.5,-517C899.5,-517 688.5,-517 688.5,-517 682.5,-517 676.5,-511 676.5,-505 676.5,-505 676.5,-493 676.5,-493 676.5,-487 682.5,-481 688.5,-481 688.5,-481 899.5,-481 899.5,-481 905.5,-481 911.5,-487 911.5,-493 911.5,-493 911.5,-505 911.5,-505 911.5,-511 905.5,-517 899.5,-517"/>
<text text-anchor="middle" x="794" y="-502.4" font-family="Helvetica,sans-Serif" font-size="12.00">Supervisa el tablero: cola priorizada,</text>
<text text-anchor="middle" x="794" y="-489.4" font-family="Helvetica,sans-Serif" font-size="12.00">semáforo, alertas e indicadores</text>
</g>
<!-- login&#45;&gt;panel -->
<g id="edge2" class="edge">
<title>login&#45;&gt;panel</title>
<path fill="none" stroke="#4a5568" stroke-width="1.3" d="M794,-556.84C794,-547.4 794,-535.53 794,-525.07"/>
<polygon fill="#4a5568" stroke="#4a5568" stroke-width="1.3" points="796.8,-525.07 794,-517.07 791.2,-525.07 796.8,-525.07"/>
</g>
<!-- decide -->
<g id="node5" class="node">
<title>decide</title>
<polygon fill="#fff3e0" stroke="#e1701a" stroke-width="1.2" points="794,-441 666,-407 794,-373 922,-407 794,-441"/>
<text text-anchor="middle" x="794" y="-410.4" font-family="Helvetica,sans-Serif" font-size="12.00">¿Qué gestión</text>
<text text-anchor="middle" x="794" y="-397.4" font-family="Helvetica,sans-Serif" font-size="12.00">requiere atención?</text>
</g>
<!-- panel&#45;&gt;decide -->
<g id="edge3" class="edge">
<title>panel&#45;&gt;decide</title>
<path fill="none" stroke="#4a5568" stroke-width="1.3" d="M794,-480.65C794,-471.77 794,-460.56 794,-449.61"/>
<polygon fill="#4a5568" stroke="#4a5568" stroke-width="1.3" points="796.8,-449.34 794,-441.34 791.2,-449.34 796.8,-449.34"/>
</g>
<!-- usuarios -->
<g id="node6" class="node">
<title>usuarios</title>
<path fill="#e8f2e2" stroke="#4f7d24" stroke-width="1.2" d="M240,-327.5C240,-327.5 12,-327.5 12,-327.5 6,-327.5 0,-321.5 0,-315.5 0,-315.5 0,-303.5 0,-303.5 0,-297.5 6,-291.5 12,-291.5 12,-291.5 240,-291.5 240,-291.5 246,-291.5 252,-297.5 252,-303.5 252,-303.5 252,-315.5 252,-315.5 252,-321.5 246,-327.5 240,-327.5"/>
<text text-anchor="middle" x="126" y="-312.9" font-family="Helvetica,sans-Serif" font-size="12.00">Administra usuarios y roles</text>
<text text-anchor="middle" x="126" y="-299.9" font-family="Helvetica,sans-Serif" font-size="12.00">(administrador, bodega, suministrador)</text>
</g>
<!-- decide&#45;&gt;usuarios -->
<g id="edge4" class="edge">
<title>decide&#45;&gt;usuarios</title>
<path fill="none" stroke="#4a5568" stroke-width="1.3" d="M711.35,-394.92C608.04,-380.96 425.83,-356.03 270,-333 260.81,-331.64 251.29,-330.21 241.73,-328.75"/>
<polygon fill="#4a5568" stroke="#4a5568" stroke-width="1.3" points="242.03,-325.97 233.7,-327.53 241.18,-331.5 242.03,-325.97"/>
<text text-anchor="middle" x="446.47" y="-365.26" font-family="Helvetica,sans-Serif" font-size="11.00">Usuarios </text>
</g>
<!-- reglas -->
<g id="node7" class="node">
<title>reglas</title>
<path fill="#e8f2e2" stroke="#4f7d24" stroke-width="1.2" d="M485.5,-333C485.5,-333 300.5,-333 300.5,-333 294.5,-333 288.5,-327 288.5,-321 288.5,-321 288.5,-298 288.5,-298 288.5,-292 294.5,-286 300.5,-286 300.5,-286 485.5,-286 485.5,-286 491.5,-286 497.5,-292 497.5,-298 497.5,-298 497.5,-321 497.5,-321 497.5,-327 491.5,-333 485.5,-333"/>
<text text-anchor="middle" x="393" y="-319.4" font-family="Helvetica,sans-Serif" font-size="12.00">Configura las reglas de negocio:</text>
<text text-anchor="middle" x="393" y="-306.4" font-family="Helvetica,sans-Serif" font-size="12.00">pesos de prioridad, visibilidad</text>
<text text-anchor="middle" x="393" y="-293.4" font-family="Helvetica,sans-Serif" font-size="12.00">y recordatorio de alertas</text>
</g>
<!-- decide&#45;&gt;reglas -->
<g id="edge5" class="edge">
<title>decide&#45;&gt;reglas</title>
<path fill="none" stroke="#4a5568" stroke-width="1.3" d="M728.23,-390.34C665.1,-375.3 568.79,-352.36 495.57,-334.93"/>
<polygon fill="#4a5568" stroke="#4a5568" stroke-width="1.3" points="496.09,-332.17 487.66,-333.04 494.8,-337.62 496.09,-332.17"/>
<text text-anchor="middle" x="587.46" y="-364.89" font-family="Helvetica,sans-Serif" font-size="11.00">Reglas </text>
</g>
<!-- catalogo -->
<g id="node8" class="node">
<title>catalogo</title>
<path fill="#e8f2e2" stroke="#4f7d24" stroke-width="1.2" d="M764,-333C764,-333 546,-333 546,-333 540,-333 534,-327 534,-321 534,-321 534,-298 534,-298 534,-292 540,-286 546,-286 546,-286 764,-286 764,-286 770,-286 776,-292 776,-298 776,-298 776,-321 776,-321 776,-327 770,-333 764,-333"/>
<text text-anchor="middle" x="655" y="-319.4" font-family="Helvetica,sans-Serif" font-size="12.00">Gestiona catálogo de materiales</text>
<text text-anchor="middle" x="655" y="-306.4" font-family="Helvetica,sans-Serif" font-size="12.00">(suministrador y catman obligatorios)</text>
<text text-anchor="middle" x="655" y="-293.4" font-family="Helvetica,sans-Serif" font-size="12.00">e inventario</text>
</g>
<!-- decide&#45;&gt;catalogo -->
<g id="edge6" class="edge">
<title>decide&#45;&gt;catalogo</title>
<path fill="none" stroke="#4a5568" stroke-width="1.3" d="M759.28,-382.15C739.63,-368.65 714.98,-351.71 694.58,-337.7"/>
<polygon fill="#4a5568" stroke="#4a5568" stroke-width="1.3" points="696.02,-335.29 687.84,-333.06 692.85,-339.9 696.02,-335.29"/>
<text text-anchor="middle" x="692.55" y="-360.8" font-family="Helvetica,sans-Serif" font-size="11.00">Materiales </text>
</g>
<!-- repo -->
<g id="node9" class="node">
<title>repo</title>
<path fill="#fde8d8" stroke="#e1701a" stroke-width="1.2" d="M1044,-327.5C1044,-327.5 824,-327.5 824,-327.5 818,-327.5 812,-321.5 812,-315.5 812,-315.5 812,-303.5 812,-303.5 812,-297.5 818,-291.5 824,-291.5 824,-291.5 1044,-291.5 1044,-291.5 1050,-291.5 1056,-297.5 1056,-303.5 1056,-303.5 1056,-315.5 1056,-315.5 1056,-321.5 1050,-327.5 1044,-327.5"/>
<text text-anchor="middle" x="934" y="-312.9" font-family="Helvetica,sans-Serif" font-size="12.00">Registra reposiciones al suministrador</text>
<text text-anchor="middle" x="934" y="-299.9" font-family="Helvetica,sans-Serif" font-size="12.00">para materiales con faltante</text>
</g>
<!-- decide&#45;&gt;repo -->
<g id="edge7" class="edge">
<title>decide&#45;&gt;repo</title>
<path fill="none" stroke="#4a5568" stroke-width="1.3" d="M828.97,-382.15C851.33,-366.89 880.12,-347.25 901.9,-332.4"/>
<polygon fill="#4a5568" stroke="#4a5568" stroke-width="1.3" points="903.68,-334.57 908.71,-327.75 900.52,-329.95 903.68,-334.57"/>
<text text-anchor="middle" x="836.63" y="-358.29" font-family="Helvetica,sans-Serif" font-size="11.00">Reposición </text>
</g>
<!-- estado -->
<g id="node10" class="node">
<title>estado</title>
<path fill="#e8f2e2" stroke="#4f7d24" stroke-width="1.2" d="M1287.5,-327.5C1287.5,-327.5 1104.5,-327.5 1104.5,-327.5 1098.5,-327.5 1092.5,-321.5 1092.5,-315.5 1092.5,-315.5 1092.5,-303.5 1092.5,-303.5 1092.5,-297.5 1098.5,-291.5 1104.5,-291.5 1104.5,-291.5 1287.5,-291.5 1287.5,-291.5 1293.5,-291.5 1299.5,-297.5 1299.5,-303.5 1299.5,-303.5 1299.5,-315.5 1299.5,-315.5 1299.5,-321.5 1293.5,-327.5 1287.5,-327.5"/>
<text text-anchor="middle" x="1196" y="-312.9" font-family="Helvetica,sans-Serif" font-size="12.00">Monitorea el estado del sistema</text>
<text text-anchor="middle" x="1196" y="-299.9" font-family="Helvetica,sans-Serif" font-size="12.00">y la sincronización con el ERP</text>
</g>
<!-- decide&#45;&gt;estado -->
<g id="edge8" class="edge">
<title>decide&#45;&gt;estado</title>
<path fill="none" stroke="#4a5568" stroke-width="1.3" d="M859.93,-390.34C930.1,-373.67 1041.15,-347.29 1116.21,-329.46"/>
<polygon fill="#4a5568" stroke="#4a5568" stroke-width="1.3" points="1117.13,-332.12 1124.26,-327.54 1115.83,-326.67 1117.13,-332.12"/>
<text text-anchor="middle" x="967.66" y="-362.13" font-family="Helvetica,sans-Serif" font-size="11.00">Sistema </text>
</g>
<!-- operativo -->
<g id="node11" class="node">
<title>operativo</title>
<path fill="#dbe7f7" stroke="#17365d" stroke-width="1.2" d="M1592.5,-327.5C1592.5,-327.5 1347.5,-327.5 1347.5,-327.5 1341.5,-327.5 1335.5,-321.5 1335.5,-315.5 1335.5,-315.5 1335.5,-303.5 1335.5,-303.5 1335.5,-297.5 1341.5,-291.5 1347.5,-291.5 1347.5,-291.5 1592.5,-291.5 1592.5,-291.5 1598.5,-291.5 1604.5,-297.5 1604.5,-303.5 1604.5,-303.5 1604.5,-315.5 1604.5,-315.5 1604.5,-321.5 1598.5,-327.5 1592.5,-327.5"/>
<text text-anchor="middle" x="1470" y="-312.9" font-family="Helvetica,sans-Serif" font-size="12.00">Registra pedidos y supervisa la operación:</text>
<text text-anchor="middle" x="1470" y="-299.9" font-family="Helvetica,sans-Serif" font-size="12.00">despachos, reagendas, reportes y NC</text>
</g>
<!-- decide&#45;&gt;operativo -->
<g id="edge9" class="edge">
<title>decide&#45;&gt;operativo</title>
<path fill="none" stroke="#4a5568" stroke-width="1.3" d="M876.17,-394.77C979.37,-380.62 1161.85,-355.43 1318,-333 1327.58,-331.62 1337.51,-330.18 1347.48,-328.73"/>
<polygon fill="#4a5568" stroke="#4a5568" stroke-width="1.3" points="1347.97,-331.49 1355.48,-327.56 1347.16,-325.95 1347.97,-331.49"/>
<text text-anchor="middle" x="1092.65" y="-364.83" font-family="Helvetica,sans-Serif" font-size="11.00">Pedidos </text>
</g>
<!-- verifica -->
<g id="node12" class="node">
<title>verifica</title>
<polygon fill="#fff3e0" stroke="#e1701a" stroke-width="1.2" points="794,-246 630,-212 794,-178 958,-212 794,-246"/>
<text text-anchor="middle" x="794" y="-215.4" font-family="Helvetica,sans-Serif" font-size="12.00">¿Los cambios quedaron</text>
<text text-anchor="middle" x="794" y="-202.4" font-family="Helvetica,sans-Serif" font-size="12.00">reflejados en el sistema?</text>
</g>
<!-- usuarios&#45;&gt;verifica -->
<g id="edge10" class="edge">
<title>usuarios&#45;&gt;verifica</title>
<path fill="none" stroke="#4a5568" stroke-width="1.3" d="M233.7,-291.47C245.94,-289.6 258.24,-287.74 270,-286 415.23,-264.54 583.38,-241.42 689.21,-227.08"/>
<polygon fill="#4a5568" stroke="#4a5568" stroke-width="1.3" points="689.8,-229.82 697.35,-225.98 689.05,-224.27 689.8,-229.82"/>
</g>
<!-- reglas&#45;&gt;verifica -->
<g id="edge11" class="edge">
<title>reglas&#45;&gt;verifica</title>
<path fill="none" stroke="#4a5568" stroke-width="1.3" d="M487.52,-285.99C555.72,-269.75 646.87,-248.04 712,-232.53"/>
<polygon fill="#4a5568" stroke="#4a5568" stroke-width="1.3" points="712.68,-235.24 719.82,-230.67 711.38,-229.8 712.68,-235.24"/>
</g>
<!-- catalogo&#45;&gt;verifica -->
<g id="edge12" class="edge">
<title>catalogo&#45;&gt;verifica</title>
<path fill="none" stroke="#4a5568" stroke-width="1.3" d="M687.94,-285.87C706.55,-273.08 730.05,-256.94 750.19,-243.1"/>
<polygon fill="#4a5568" stroke="#4a5568" stroke-width="1.3" points="751.88,-245.34 756.88,-238.5 748.71,-240.72 751.88,-245.34"/>
</g>
<!-- repo&#45;&gt;verifica -->
<g id="edge13" class="edge">
<title>repo&#45;&gt;verifica</title>
<path fill="none" stroke="#4a5568" stroke-width="1.3" d="M908.97,-291.43C889.29,-278 861.37,-258.96 837.98,-243"/>
<polygon fill="#4a5568" stroke="#4a5568" stroke-width="1.3" points="839.38,-240.57 831.19,-238.37 836.23,-245.19 839.38,-240.57"/>
</g>
<!-- estado&#45;&gt;verifica -->
<g id="edge14" class="edge">
<title>estado&#45;&gt;verifica</title>
<path fill="none" stroke="#4a5568" stroke-width="1.3" d="M1124.13,-291.43C1054.51,-274.89 949.05,-249.83 876.15,-232.51"/>
<polygon fill="#4a5568" stroke="#4a5568" stroke-width="1.3" points="876.74,-229.78 868.31,-230.65 875.45,-235.23 876.74,-229.78"/>
</g>
<!-- operativo&#45;&gt;verifica -->
<g id="edge15" class="edge">
<title>operativo&#45;&gt;verifica</title>
<path fill="none" stroke="#4a5568" stroke-width="1.3" d="M1355.48,-291.44C1342.84,-289.59 1330.15,-287.75 1318,-286 1172.46,-265.09 1004.04,-241.79 898.27,-227.26"/>
<polygon fill="#4a5568" stroke="#4a5568" stroke-width="1.3" points="898.44,-224.46 890.13,-226.14 897.68,-230 898.44,-224.46"/>
</g>
<!-- ajusta -->
<g id="node13" class="node">
<title>ajusta</title>
<path fill="#fde8d8" stroke="#e1701a" stroke-width="1.2" d="M885,-138C885,-138 703,-138 703,-138 697,-138 691,-132 691,-126 691,-126 691,-114 691,-114 691,-108 697,-102 703,-102 703,-102 885,-102 885,-102 891,-102 897,-108 897,-114 897,-114 897,-126 897,-126 897,-132 891,-138 885,-138"/>
<text text-anchor="middle" x="794" y="-123.4" font-family="Helvetica,sans-Serif" font-size="12.00">Ajusta la configuración</text>
<text text-anchor="middle" x="794" y="-110.4" font-family="Helvetica,sans-Serif" font-size="12.00">(el motor recalcula prioridades)</text>
</g>
<!-- verifica&#45;&gt;ajusta -->
<g id="edge17" class="edge">
<title>verifica&#45;&gt;ajusta</title>
<path fill="none" stroke="#4a5568" stroke-width="1.3" d="M781.15,-180.53C780.12,-169.34 780.32,-156.82 781.74,-146.15"/>
<polygon fill="#4a5568" stroke="#4a5568" stroke-width="1.3" points="784.54,-146.42 783.15,-138.05 779.02,-145.46 784.54,-146.42"/>
<text text-anchor="middle" x="771.13" y="-162.51" font-family="Helvetica,sans-Serif" font-size="11.00" fill="#c62828">No </text>
</g>
<!-- cierre -->
<g id="node14" class="node">
<title>cierre</title>
<path fill="#dbe7f7" stroke="#17365d" stroke-width="1.2" d="M1130.5,-138C1130.5,-138 945.5,-138 945.5,-138 939.5,-138 933.5,-132 933.5,-126 933.5,-126 933.5,-114 933.5,-114 933.5,-108 939.5,-102 945.5,-102 945.5,-102 1130.5,-102 1130.5,-102 1136.5,-102 1142.5,-108 1142.5,-114 1142.5,-114 1142.5,-126 1142.5,-126 1142.5,-132 1136.5,-138 1130.5,-138"/>
<text text-anchor="middle" x="1038" y="-123.4" font-family="Helvetica,sans-Serif" font-size="12.00">El sistema queda actualizado:</text>
<text text-anchor="middle" x="1038" y="-110.4" font-family="Helvetica,sans-Serif" font-size="12.00">cola, alertas e indicadores al día</text>
</g>
<!-- verifica&#45;&gt;cierre -->
<g id="edge16" class="edge">
<title>verifica&#45;&gt;cierre</title>
<path fill="none" stroke="#4a5568" stroke-width="1.3" d="M851.52,-189.79C891.67,-174.97 944.9,-155.34 984.21,-140.84"/>
<polygon fill="#4a5568" stroke="#4a5568" stroke-width="1.3" points="985.34,-143.41 991.88,-138.01 983.41,-138.15 985.34,-143.41"/>
<text text-anchor="middle" x="914.99" y="-166.99" font-family="Helvetica,sans-Serif" font-size="11.00" fill="#2e7d32">Sí </text>
</g>
<!-- ajusta&#45;&gt;verifica -->
<g id="edge18" class="edge">
<title>ajusta&#45;&gt;verifica</title>
<path fill="none" stroke="#4a5568" stroke-width="1.3" d="M804.85,-138.05C806.99,-147.78 807.84,-160.38 807.38,-172.37"/>
<polygon fill="#4a5568" stroke="#4a5568" stroke-width="1.3" points="804.57,-172.37 806.85,-180.53 810.16,-172.73 804.57,-172.37"/>
</g>
<!-- cierre&#45;&gt;fin -->
<g id="edge19" class="edge">
<title>cierre&#45;&gt;fin</title>
<path fill="none" stroke="#4a5568" stroke-width="1.3" d="M1038,-101.81C1038,-92.81 1038,-81.41 1038,-70.44"/>
<polygon fill="#4a5568" stroke="#4a5568" stroke-width="1.3" points="1040.8,-70.19 1038,-62.19 1035.2,-70.19 1040.8,-70.19"/>
</g>
</g>
</svg>
