<?xml version="1.0" encoding="UTF-8" standalone="no"?>
<!DOCTYPE svg PUBLIC "-//W3C//DTD SVG 1.1//EN"
 "http://www.w3.org/Graphics/SVG/1.1/DTD/svg11.dtd">
<!-- Generated by graphviz version 2.43.0 (0)
 -->
<!-- Title: flujo Pages: 1 -->
<svg width="891pt" height="1274pt"
 viewBox="0.00 0.00 891.20 1274.20" xmlns="http://www.w3.org/2000/svg" xmlns:xlink="http://www.w3.org/1999/xlink">
<g id="graph0" class="graph" transform="scale(1 1) rotate(0) translate(21.6 1252.6)">
<title>flujo</title>
<polygon fill="white" stroke="transparent" points="-21.6,21.6 -21.6,-1252.6 869.6,-1252.6 869.6,21.6 -21.6,21.6"/>
<text text-anchor="start" x="8" y="-1212" font-family="Helvetica,sans-Serif" font-weight="bold" font-size="20.00" fill="#13294a">Diagrama de flujo — Gestión y priorización de pedidos (Disensa Prioridad)</text>
<text text-anchor="start" x="422" y="-1198.4" font-family="Helvetica,sans-Serif" font-size="12.00" fill="#555555"> </text>
<!-- inicio -->
<g id="node1" class="node">
<title>inicio</title>
<ellipse fill="#13294a" stroke="black" stroke-width="1.2" cx="242.5" cy="-1160.5" rx="30.5" ry="30.5"/>
<text text-anchor="middle" x="242.5" y="-1157.7" font-family="Helvetica,sans-Serif" font-size="11.00" fill="white">INICIO</text>
</g>
<!-- login -->
<g id="node3" class="node">
<title>login</title>
<path fill="#dbe7f7" stroke="#17365d" stroke-width="1.2" d="M321.5,-1094C321.5,-1094 163.5,-1094 163.5,-1094 157.5,-1094 151.5,-1088 151.5,-1082 151.5,-1082 151.5,-1070 151.5,-1070 151.5,-1064 157.5,-1058 163.5,-1058 163.5,-1058 321.5,-1058 321.5,-1058 327.5,-1058 333.5,-1064 333.5,-1070 333.5,-1070 333.5,-1082 333.5,-1082 333.5,-1088 327.5,-1094 321.5,-1094"/>
<text text-anchor="middle" x="242.5" y="-1079.4" font-family="Helvetica,sans-Serif" font-size="12.00">El franquiciado inicia sesión</text>
<text text-anchor="middle" x="242.5" y="-1066.4" font-family="Helvetica,sans-Serif" font-size="12.00">(rol validado, sesión única)</text>
</g>
<!-- inicio&#45;&gt;login -->
<g id="edge1" class="edge">
<title>inicio&#45;&gt;login</title>
<path fill="none" stroke="#4a5568" stroke-width="1.3" d="M242.5,-1129.99C242.5,-1129.99 242.5,-1102.41 242.5,-1102.41"/>
<polygon fill="#4a5568" stroke="#4a5568" stroke-width="1.3" points="245.3,-1102.41 242.5,-1094.41 239.7,-1102.41 245.3,-1102.41"/>
</g>
<!-- fin -->
<g id="node2" class="node">
<title>fin</title>
<ellipse fill="#13294a" stroke="black" stroke-width="1.2" cx="388.5" cy="-31" rx="27" ry="27"/>
<ellipse fill="none" stroke="black" stroke-width="1.2" cx="388.5" cy="-31" rx="31" ry="31"/>
<text text-anchor="middle" x="388.5" y="-28.2" font-family="Helvetica,sans-Serif" font-size="11.00" fill="white">FIN</text>
</g>
<!-- registro -->
<g id="node4" class="node">
<title>registro</title>
<path fill="#dbe7f7" stroke="#17365d" stroke-width="1.2" d="M352,-1022C352,-1022 133,-1022 133,-1022 127,-1022 121,-1016 121,-1010 121,-1010 121,-998 121,-998 121,-992 127,-986 133,-986 133,-986 352,-986 352,-986 358,-986 364,-992 364,-998 364,-998 364,-1010 364,-1010 364,-1016 358,-1022 352,-1022"/>
<text text-anchor="middle" x="242.5" y="-1007.4" font-family="Helvetica,sans-Serif" font-size="12.00">Registra el pedido</text>
<text text-anchor="middle" x="242.5" y="-994.4" font-family="Helvetica,sans-Serif" font-size="12.00">(material, cantidad, zona automática)</text>
</g>
<!-- login&#45;&gt;registro -->
<g id="edge2" class="edge">
<title>login&#45;&gt;registro</title>
<path fill="none" stroke="#4a5568" stroke-width="1.3" d="M242.5,-1057.83C242.5,-1057.83 242.5,-1030.41 242.5,-1030.41"/>
<polygon fill="#4a5568" stroke="#4a5568" stroke-width="1.3" points="245.3,-1030.41 242.5,-1022.41 239.7,-1030.41 245.3,-1030.41"/>
</g>
<!-- sla -->
<g id="node5" class="node">
<title>sla</title>
<path fill="#dbe7f7" stroke="#17365d" stroke-width="1.2" d="M325.5,-950C325.5,-950 159.5,-950 159.5,-950 153.5,-950 147.5,-944 147.5,-938 147.5,-938 147.5,-926 147.5,-926 147.5,-920 153.5,-914 159.5,-914 159.5,-914 325.5,-914 325.5,-914 331.5,-914 337.5,-920 337.5,-926 337.5,-926 337.5,-938 337.5,-938 337.5,-944 331.5,-950 325.5,-950"/>
<text text-anchor="middle" x="242.5" y="-935.4" font-family="Helvetica,sans-Serif" font-size="12.00">El sistema asigna la fecha</text>
<text text-anchor="middle" x="242.5" y="-922.4" font-family="Helvetica,sans-Serif" font-size="12.00">de compromiso según el SLA</text>
</g>
<!-- registro&#45;&gt;sla -->
<g id="edge3" class="edge">
<title>registro&#45;&gt;sla</title>
<path fill="none" stroke="#4a5568" stroke-width="1.3" d="M242.5,-985.83C242.5,-985.83 242.5,-958.41 242.5,-958.41"/>
<polygon fill="#4a5568" stroke="#4a5568" stroke-width="1.3" points="245.3,-958.41 242.5,-950.41 239.7,-958.41 245.3,-958.41"/>
</g>
<!-- prioridad -->
<g id="node6" class="node">
<title>prioridad</title>
<path fill="#dbe7f7" stroke="#17365d" stroke-width="1.2" d="M367,-878C367,-878 118,-878 118,-878 112,-878 106,-872 106,-866 106,-866 106,-854 106,-854 106,-848 112,-842 118,-842 118,-842 367,-842 367,-842 373,-842 379,-848 379,-854 379,-854 379,-866 379,-866 379,-872 373,-878 367,-878"/>
<text text-anchor="middle" x="242.5" y="-863.4" font-family="Helvetica,sans-Serif" font-size="12.00">Motor de reglas calcula la prioridad</text>
<text text-anchor="middle" x="242.5" y="-850.4" font-family="Helvetica,sans-Serif" font-size="12.00">y el semáforo (verde/amarillo/naranja/rojo)</text>
</g>
<!-- sla&#45;&gt;prioridad -->
<g id="edge4" class="edge">
<title>sla&#45;&gt;prioridad</title>
<path fill="none" stroke="#4a5568" stroke-width="1.3" d="M242.5,-913.83C242.5,-913.83 242.5,-886.41 242.5,-886.41"/>
<polygon fill="#4a5568" stroke="#4a5568" stroke-width="1.3" points="245.3,-886.41 242.5,-878.41 239.7,-886.41 245.3,-886.41"/>
</g>
<!-- cola -->
<g id="node7" class="node">
<title>cola</title>
<path fill="#dbe7f7" stroke="#17365d" stroke-width="1.2" d="M466,-806C466,-806 317,-806 317,-806 311,-806 305,-800 305,-794 305,-794 305,-782 305,-782 305,-776 311,-770 317,-770 317,-770 466,-770 466,-770 472,-770 478,-776 478,-782 478,-782 478,-794 478,-794 478,-800 472,-806 466,-806"/>
<text text-anchor="middle" x="391.5" y="-791.4" font-family="Helvetica,sans-Serif" font-size="12.00">El pedido entra a la</text>
<text text-anchor="middle" x="391.5" y="-778.4" font-family="Helvetica,sans-Serif" font-size="12.00">cola priorizada de bodega</text>
</g>
<!-- prioridad&#45;&gt;cola -->
<g id="edge5" class="edge">
<title>prioridad&#45;&gt;cola</title>
<path fill="none" stroke="#4a5568" stroke-width="1.3" d="M342,-841.83C342,-841.83 342,-814.41 342,-814.41"/>
<polygon fill="#4a5568" stroke="#4a5568" stroke-width="1.3" points="344.8,-814.41 342,-806.41 339.2,-814.41 344.8,-814.41"/>
</g>
<!-- alertas -->
<g id="node19" class="node">
<title>alertas</title>
<path fill="#e8f2e2" stroke="#4f7d24" stroke-width="1.2" d="M659.5,-878C659.5,-878 423.5,-878 423.5,-878 417.5,-878 411.5,-872 411.5,-866 411.5,-866 411.5,-854 411.5,-854 411.5,-848 417.5,-842 423.5,-842 423.5,-842 659.5,-842 659.5,-842 665.5,-842 671.5,-848 671.5,-854 671.5,-854 671.5,-866 671.5,-866 671.5,-872 665.5,-878 659.5,-878"/>
<text text-anchor="middle" x="541.5" y="-863.4" font-family="Helvetica,sans-Serif" font-size="12.00">El sistema genera alertas en tiempo real</text>
<text text-anchor="middle" x="541.5" y="-850.4" font-family="Helvetica,sans-Serif" font-size="12.00">y actualiza indicadores (transversal)</text>
</g>
<!-- prioridad&#45;&gt;alertas -->
<g id="edge22" class="edge">
<title>prioridad&#45;&gt;alertas</title>
<path fill="none" stroke="#4f7d24" stroke-width="1.3" stroke-dasharray="5,2" d="M379.31,-860C389.92,-860 400.62,-860 411.18,-860"/>
</g>
<!-- stock -->
<g id="node8" class="node">
<title>stock</title>
<polygon fill="#fff3e0" stroke="#e1701a" stroke-width="1.2" points="391.5,-734 308.5,-700 391.5,-666 474.5,-700 391.5,-734"/>
<text text-anchor="middle" x="391.5" y="-703.4" font-family="Helvetica,sans-Serif" font-size="12.00">¿Hay stock</text>
<text text-anchor="middle" x="391.5" y="-690.4" font-family="Helvetica,sans-Serif" font-size="12.00">disponible?</text>
</g>
<!-- cola&#45;&gt;stock -->
<g id="edge6" class="edge">
<title>cola&#45;&gt;stock</title>
<path fill="none" stroke="#4a5568" stroke-width="1.3" d="M391.5,-769.77C391.5,-769.77 391.5,-742.22 391.5,-742.22"/>
<polygon fill="#4a5568" stroke="#4a5568" stroke-width="1.3" points="394.3,-742.22 391.5,-734.22 388.7,-742.22 394.3,-742.22"/>
</g>
<!-- repo -->
<g id="node9" class="node">
<title>repo</title>
<path fill="#fde8d8" stroke="#e1701a" stroke-width="1.2" d="M668,-718C668,-718 519,-718 519,-718 513,-718 507,-712 507,-706 507,-706 507,-694 507,-694 507,-688 513,-682 519,-682 519,-682 668,-682 668,-682 674,-682 680,-688 680,-694 680,-694 680,-706 680,-706 680,-712 674,-718 668,-718"/>
<text text-anchor="middle" x="593.5" y="-703.4" font-family="Helvetica,sans-Serif" font-size="12.00">Bodega genera reposición</text>
<text text-anchor="middle" x="593.5" y="-690.4" font-family="Helvetica,sans-Serif" font-size="12.00">al suministrador</text>
</g>
<!-- stock&#45;&gt;repo -->
<g id="edge8" class="edge">
<title>stock&#45;&gt;repo</title>
<path fill="none" stroke="#4a5568" stroke-width="1.3" d="M474.54,-700C474.54,-700 498.86,-700 498.86,-700"/>
<polygon fill="#4a5568" stroke="#4a5568" stroke-width="1.3" points="498.86,-702.8 506.86,-700 498.86,-697.2 498.86,-702.8"/>
<text text-anchor="middle" x="492.45" y="-691.2" font-family="Helvetica,sans-Serif" font-size="11.00" fill="#c62828">No &#160;</text>
</g>
<!-- despacho -->
<g id="node12" class="node">
<title>despacho</title>
<path fill="#dbe7f7" stroke="#17365d" stroke-width="1.2" d="M567.5,-486C567.5,-486 405.5,-486 405.5,-486 399.5,-486 393.5,-480 393.5,-474 393.5,-474 393.5,-462 393.5,-462 393.5,-456 399.5,-450 405.5,-450 405.5,-450 567.5,-450 567.5,-450 573.5,-450 579.5,-456 579.5,-462 579.5,-462 579.5,-474 579.5,-474 579.5,-480 573.5,-486 567.5,-486"/>
<text text-anchor="middle" x="486.5" y="-471.4" font-family="Helvetica,sans-Serif" font-size="12.00">Bodega despacha el pedido</text>
<text text-anchor="middle" x="486.5" y="-458.4" font-family="Helvetica,sans-Serif" font-size="12.00">(descuento seguro de stock)</text>
</g>
<!-- stock&#45;&gt;despacho -->
<g id="edge7" class="edge">
<title>stock&#45;&gt;despacho</title>
<path fill="none" stroke="#4a5568" stroke-width="1.3" d="M432.5,-682.56C432.5,-682.56 432.5,-494.28 432.5,-494.28"/>
<polygon fill="#4a5568" stroke="#4a5568" stroke-width="1.3" points="435.3,-494.28 432.5,-486.28 429.7,-494.28 435.3,-494.28"/>
<text text-anchor="middle" x="423.5" y="-591.62" font-family="Helvetica,sans-Serif" font-size="11.00" fill="#2e7d32">Sí &#160;</text>
</g>
<!-- sumi -->
<g id="node10" class="node">
<title>sumi</title>
<path fill="#fde8d8" stroke="#e1701a" stroke-width="1.2" d="M671,-630C671,-630 490,-630 490,-630 484,-630 478,-624 478,-618 478,-618 478,-606 478,-606 478,-600 484,-594 490,-594 490,-594 671,-594 671,-594 677,-594 683,-600 683,-606 683,-606 683,-618 683,-618 683,-624 677,-630 671,-630"/>
<text text-anchor="middle" x="580.5" y="-615.4" font-family="Helvetica,sans-Serif" font-size="12.00">Suministrador confirma envío e</text>
<text text-anchor="middle" x="580.5" y="-602.4" font-family="Helvetica,sans-Serif" font-size="12.00">indica estado del material</text>
</g>
<!-- repo&#45;&gt;sumi -->
<g id="edge9" class="edge">
<title>repo&#45;&gt;sumi</title>
<path fill="none" stroke="#4a5568" stroke-width="1.3" d="M593.5,-681.77C593.5,-681.77 593.5,-638.21 593.5,-638.21"/>
<polygon fill="#4a5568" stroke="#4a5568" stroke-width="1.3" points="596.3,-638.21 593.5,-630.21 590.7,-638.21 596.3,-638.21"/>
</g>
<!-- recibe -->
<g id="node11" class="node">
<title>recibe</title>
<path fill="#fde8d8" stroke="#e1701a" stroke-width="1.2" d="M641.5,-558C641.5,-558 483.5,-558 483.5,-558 477.5,-558 471.5,-552 471.5,-546 471.5,-546 471.5,-534 471.5,-534 471.5,-528 477.5,-522 483.5,-522 483.5,-522 641.5,-522 641.5,-522 647.5,-522 653.5,-528 653.5,-534 653.5,-534 653.5,-546 653.5,-546 653.5,-552 647.5,-558 641.5,-558"/>
<text text-anchor="middle" x="562.5" y="-543.4" font-family="Helvetica,sans-Serif" font-size="12.00">Bodega recibe la reposición</text>
<text text-anchor="middle" x="562.5" y="-530.4" font-family="Helvetica,sans-Serif" font-size="12.00">y actualiza el inventario</text>
</g>
<!-- sumi&#45;&gt;recibe -->
<g id="edge10" class="edge">
<title>sumi&#45;&gt;recibe</title>
<path fill="none" stroke="#4a5568" stroke-width="1.3" d="M565.75,-593.83C565.75,-593.83 565.75,-566.41 565.75,-566.41"/>
<polygon fill="#4a5568" stroke="#4a5568" stroke-width="1.3" points="568.55,-566.41 565.75,-558.41 562.95,-566.41 568.55,-566.41"/>
</g>
<!-- recibe&#45;&gt;despacho -->
<g id="edge11" class="edge">
<title>recibe&#45;&gt;despacho</title>
<path fill="none" stroke="#4a5568" stroke-width="1.3" d="M525.5,-521.83C525.5,-521.83 525.5,-494.41 525.5,-494.41"/>
<polygon fill="#4a5568" stroke="#4a5568" stroke-width="1.3" points="528.3,-494.41 525.5,-486.41 522.7,-494.41 528.3,-494.41"/>
</g>
<!-- recepcion -->
<g id="node13" class="node">
<title>recepcion</title>
<path fill="#dbe7f7" stroke="#17365d" stroke-width="1.2" d="M549.5,-414C549.5,-414 423.5,-414 423.5,-414 417.5,-414 411.5,-408 411.5,-402 411.5,-402 411.5,-390 411.5,-390 411.5,-384 417.5,-378 423.5,-378 423.5,-378 549.5,-378 549.5,-378 555.5,-378 561.5,-384 561.5,-390 561.5,-390 561.5,-402 561.5,-402 561.5,-408 555.5,-414 549.5,-414"/>
<text text-anchor="middle" x="486.5" y="-399.4" font-family="Helvetica,sans-Serif" font-size="12.00">Franquiciado confirma</text>
<text text-anchor="middle" x="486.5" y="-386.4" font-family="Helvetica,sans-Serif" font-size="12.00">la recepción</text>
</g>
<!-- despacho&#45;&gt;recepcion -->
<g id="edge12" class="edge">
<title>despacho&#45;&gt;recepcion</title>
<path fill="none" stroke="#4a5568" stroke-width="1.3" d="M486.5,-449.83C486.5,-449.83 486.5,-422.41 486.5,-422.41"/>
<polygon fill="#4a5568" stroke="#4a5568" stroke-width="1.3" points="489.3,-422.41 486.5,-414.41 483.7,-422.41 489.3,-422.41"/>
</g>
<!-- conforme -->
<g id="node14" class="node">
<title>conforme</title>
<polygon fill="#fff3e0" stroke="#e1701a" stroke-width="1.2" points="308.5,-342 228.5,-308 308.5,-274 388.5,-308 308.5,-342"/>
<text text-anchor="middle" x="308.5" y="-311.4" font-family="Helvetica,sans-Serif" font-size="12.00">¿Material</text>
<text text-anchor="middle" x="308.5" y="-298.4" font-family="Helvetica,sans-Serif" font-size="12.00">conforme?</text>
</g>
<!-- recepcion&#45;&gt;conforme -->
<g id="edge13" class="edge">
<title>recepcion&#45;&gt;conforme</title>
<path fill="none" stroke="#4a5568" stroke-width="1.3" d="M416.25,-377.73C416.25,-359.44 416.25,-334 416.25,-334 416.25,-334 335.76,-334 335.76,-334"/>
<polygon fill="#4a5568" stroke="#4a5568" stroke-width="1.3" points="335.76,-331.2 327.76,-334 335.76,-336.8 335.76,-331.2"/>
</g>
<!-- reporte -->
<g id="node15" class="node">
<title>reporte</title>
<path fill="#fde8d8" stroke="#e1701a" stroke-width="1.2" d="M604,-326C604,-326 433,-326 433,-326 427,-326 421,-320 421,-314 421,-314 421,-302 421,-302 421,-296 427,-290 433,-290 433,-290 604,-290 604,-290 610,-290 616,-296 616,-302 616,-302 616,-314 616,-314 616,-320 610,-326 604,-326"/>
<text text-anchor="middle" x="518.5" y="-311.4" font-family="Helvetica,sans-Serif" font-size="12.00">Levanta reporte: defectuoso,</text>
<text text-anchor="middle" x="518.5" y="-298.4" font-family="Helvetica,sans-Serif" font-size="12.00">retraso o nota de crédito (NC)</text>
</g>
<!-- conforme&#45;&gt;reporte -->
<g id="edge15" class="edge">
<title>conforme&#45;&gt;reporte</title>
<path fill="none" stroke="#4a5568" stroke-width="1.3" d="M388.79,-308C388.79,-308 413,-308 413,-308"/>
<polygon fill="#4a5568" stroke="#4a5568" stroke-width="1.3" points="413,-310.8 421,-308 413,-305.2 413,-310.8"/>
<text text-anchor="middle" x="406.64" y="-299.2" font-family="Helvetica,sans-Serif" font-size="11.00" fill="#c62828">No &#160;</text>
</g>
<!-- cierre -->
<g id="node20" class="node">
<title>cierre</title>
<path fill="#dbe7f7" stroke="#17365d" stroke-width="1.2" d="M359.5,-222C359.5,-222 261.5,-222 261.5,-222 255.5,-222 249.5,-216 249.5,-210 249.5,-210 249.5,-198 249.5,-198 249.5,-192 255.5,-186 261.5,-186 261.5,-186 359.5,-186 359.5,-186 365.5,-186 371.5,-192 371.5,-198 371.5,-198 371.5,-210 371.5,-210 371.5,-216 365.5,-222 359.5,-222"/>
<text text-anchor="middle" x="310.5" y="-207.4" font-family="Helvetica,sans-Serif" font-size="12.00">Pedido entregado</text>
<text text-anchor="middle" x="310.5" y="-194.4" font-family="Helvetica,sans-Serif" font-size="12.00">y gestión cerrada</text>
</g>
<!-- conforme&#45;&gt;cierre -->
<g id="edge14" class="edge">
<title>conforme&#45;&gt;cierre</title>
<path fill="none" stroke="#4a5568" stroke-width="1.3" d="M310.5,-274.81C310.5,-274.81 310.5,-230.07 310.5,-230.07"/>
<polygon fill="#4a5568" stroke="#4a5568" stroke-width="1.3" points="313.3,-230.07 310.5,-222.07 307.7,-230.07 313.3,-230.07"/>
<text text-anchor="middle" x="301.5" y="-255.64" font-family="Helvetica,sans-Serif" font-size="11.00" fill="#2e7d32">Sí &#160;</text>
</g>
<!-- nc -->
<g id="node16" class="node">
<title>nc</title>
<polygon fill="#fff3e0" stroke="#e1701a" stroke-width="1.2" points="518.5,-238 426.5,-204 518.5,-170 610.5,-204 518.5,-238"/>
<text text-anchor="middle" x="518.5" y="-207.4" font-family="Helvetica,sans-Serif" font-size="12.00">¿Se aprueba</text>
<text text-anchor="middle" x="518.5" y="-194.4" font-family="Helvetica,sans-Serif" font-size="12.00">la NC?</text>
</g>
<!-- reporte&#45;&gt;nc -->
<g id="edge16" class="edge">
<title>reporte&#45;&gt;nc</title>
<path fill="none" stroke="#4a5568" stroke-width="1.3" d="M518.5,-289.88C518.5,-289.88 518.5,-246.29 518.5,-246.29"/>
<polygon fill="#4a5568" stroke="#4a5568" stroke-width="1.3" points="521.3,-246.29 518.5,-238.29 515.7,-246.29 521.3,-246.29"/>
</g>
<!-- reembolso -->
<g id="node17" class="node">
<title>reembolso</title>
<path fill="#fde8d8" stroke="#e1701a" stroke-width="1.2" d="M541,-134C541,-134 386,-134 386,-134 380,-134 374,-128 374,-122 374,-122 374,-110 374,-110 374,-104 380,-98 386,-98 386,-98 541,-98 541,-98 547,-98 553,-104 553,-110 553,-110 553,-122 553,-122 553,-128 547,-134 541,-134"/>
<text text-anchor="middle" x="463.5" y="-119.4" font-family="Helvetica,sans-Serif" font-size="12.00">Se emite la nota de crédito</text>
<text text-anchor="middle" x="463.5" y="-106.4" font-family="Helvetica,sans-Serif" font-size="12.00">y se cierra la gestión</text>
</g>
<!-- nc&#45;&gt;reembolso -->
<g id="edge17" class="edge">
<title>nc&#45;&gt;reembolso</title>
<path fill="none" stroke="#4a5568" stroke-width="1.3" d="M489.75,-180.42C489.75,-180.42 489.75,-142.06 489.75,-142.06"/>
<polygon fill="#4a5568" stroke="#4a5568" stroke-width="1.3" points="492.55,-142.06 489.75,-134.06 486.95,-142.06 492.55,-142.06"/>
<text text-anchor="middle" x="482.75" y="-152.44" font-family="Helvetica,sans-Serif" font-size="11.00" fill="#2e7d32">Sí </text>
</g>
<!-- reponer -->
<g id="node18" class="node">
<title>reponer</title>
<path fill="#fde8d8" stroke="#e1701a" stroke-width="1.2" d="M730,-134C730,-134 599,-134 599,-134 593,-134 587,-128 587,-122 587,-122 587,-110 587,-110 587,-104 593,-98 599,-98 599,-98 730,-98 730,-98 736,-98 742,-104 742,-110 742,-110 742,-122 742,-122 742,-128 736,-134 730,-134"/>
<text text-anchor="middle" x="664.5" y="-119.4" font-family="Helvetica,sans-Serif" font-size="12.00">Bodega repone y envía</text>
<text text-anchor="middle" x="664.5" y="-106.4" font-family="Helvetica,sans-Serif" font-size="12.00">el material</text>
</g>
<!-- nc&#45;&gt;reponer -->
<g id="edge18" class="edge">
<title>nc&#45;&gt;reponer</title>
<path fill="none" stroke="#4a5568" stroke-width="1.3" d="M598.75,-199.27C598.75,-199.27 598.75,-142.13 598.75,-142.13"/>
<polygon fill="#4a5568" stroke="#4a5568" stroke-width="1.3" points="601.55,-142.13 598.75,-134.13 595.95,-142.13 601.55,-142.13"/>
<text text-anchor="middle" x="589.25" y="-161.9" font-family="Helvetica,sans-Serif" font-size="11.00" fill="#c62828">No </text>
</g>
<!-- reembolso&#45;&gt;fin -->
<g id="edge20" class="edge">
<title>reembolso&#45;&gt;fin</title>
<path fill="none" stroke="#4a5568" stroke-width="1.3" d="M396.75,-97.97C396.75,-97.97 396.75,-69.04 396.75,-69.04"/>
<polygon fill="#4a5568" stroke="#4a5568" stroke-width="1.3" points="399.55,-69.04 396.75,-61.04 393.95,-69.04 399.55,-69.04"/>
</g>
<!-- reponer&#45;&gt;recepcion -->
<g id="edge19" class="edge">
<title>reponer&#45;&gt;recepcion</title>
<path fill="none" stroke="#4a5568" stroke-width="1.3" d="M634.75,-134.37C634.75,-196.66 634.75,-396 634.75,-396 634.75,-396 569.93,-396 569.93,-396"/>
<polygon fill="#4a5568" stroke="#4a5568" stroke-width="1.3" points="569.93,-393.2 561.93,-396 569.93,-398.8 569.93,-393.2"/>
</g>
<!-- alertas&#45;&gt;cola -->
<!-- cierre&#45;&gt;fin -->
<g id="edge21" class="edge">
<title>cierre&#45;&gt;fin</title>
<path fill="none" stroke="#4a5568" stroke-width="1.3" d="M364.5,-185.81C364.5,-185.81 364.5,-58.79 364.5,-58.79"/>
<polygon fill="#4a5568" stroke="#4a5568" stroke-width="1.3" points="367.3,-58.79 364.5,-50.79 361.7,-58.79 367.3,-58.79"/>
</g>
</g>
</svg>
