<svg xmlns="http://www.w3.org/2000/svg" viewBox="0 0 2036 898" font-family="Segoe UI, Arial, sans-serif">
<rect x="0" y="0" width="2036" height="898" fill="#ffffff"/>
<defs><marker id="arr" markerWidth="9" markerHeight="9" refX="7" refY="3" orient="auto"><path d="M0,0 L7,3 L0,6 Z" fill="#6b7890"/></marker></defs>
<text x="1018.0" y="34" text-anchor="middle" font-size="24" font-weight="bold" fill="#1F3864">Diagrama entidad-relacion — base de datos PostgreSQL</text>
<text x="1018.0" y="56" text-anchor="middle" font-size="15" fill="#555">Sistema Disensa Prioridad</text>
<line x1="718" y1="400" x2="718" y2="250" stroke="#8a97ab" stroke-width="1.4" marker-end="url(#arr)"/>
<text x="718" y="364" font-size="11" fill="#3a4a63">N</text>
<text x="718" y="280" font-size="11" fill="#3a4a63">1</text>
<line x1="718" y1="400" x2="1008" y2="264" stroke="#8a97ab" stroke-width="1.4" marker-end="url(#arr)"/>
<text x="782" y="367" font-size="11" fill="#3a4a63">N</text>
<text x="944" y="291" font-size="11" fill="#3a4a63">1</text>
<line x1="718" y1="400" x2="430" y2="208" stroke="#8a97ab" stroke-width="1.4" marker-end="url(#arr)"/>
<text x="655" y="355" font-size="11" fill="#3a4a63">N</text>
<text x="493" y="247" font-size="11" fill="#3a4a63">1</text>
<line x1="148" y1="300" x2="148" y2="190" stroke="#8a97ab" stroke-width="1.4" marker-end="url(#arr)"/>
<text x="148" y="273" font-size="11" fill="#3a4a63">N</text>
<text x="148" y="211" font-size="11" fill="#3a4a63">1</text>
<line x1="148" y1="470" x2="148" y2="190" stroke="#8a97ab" stroke-width="1.4" marker-end="url(#arr)"/>
<text x="148" y="405" font-size="11" fill="#3a4a63">N</text>
<text x="148" y="249" font-size="11" fill="#3a4a63">1</text>
<line x1="836" y1="145" x2="890" y2="177" stroke="#8a97ab" stroke-width="1.4" marker-end="url(#arr)"/>
<text x="848" y="149" font-size="11" fill="#3a4a63">N</text>
<text x="878" y="167" font-size="11" fill="#3a4a63">1</text>
<line x1="430" y1="450" x2="718" y2="250" stroke="#8a97ab" stroke-width="1.4" marker-end="url(#arr)"/>
<text x="493" y="403" font-size="11" fill="#3a4a63">N</text>
<text x="655" y="291" font-size="11" fill="#3a4a63">1</text>
<line x1="548" y1="739" x2="890" y2="177" stroke="#8a97ab" stroke-width="1.4" marker-end="url(#arr)"/>
<text x="623" y="612" font-size="11" fill="#3a4a63">N</text>
<text x="815" y="298" font-size="11" fill="#3a4a63">1</text>
<line x1="1008" y1="430" x2="1008" y2="264" stroke="#8a97ab" stroke-width="1.4" marker-end="url(#arr)"/>
<text x="1008" y="390" font-size="11" fill="#3a4a63">N</text>
<text x="1008" y="298" font-size="11" fill="#3a4a63">1</text>
<line x1="718" y1="720" x2="718" y2="574" stroke="#8a97ab" stroke-width="1.4" marker-end="url(#arr)"/>
<text x="718" y="685" font-size="11" fill="#3a4a63">N</text>
<text x="718" y="603" font-size="11" fill="#3a4a63">1</text>
<line x1="718" y1="720" x2="718" y2="250" stroke="#8a97ab" stroke-width="1.4" marker-end="url(#arr)"/>
<text x="718" y="614" font-size="11" fill="#3a4a63">N</text>
<text x="718" y="350" font-size="11" fill="#3a4a63">1</text>
<line x1="718" y1="720" x2="1008" y2="264" stroke="#8a97ab" stroke-width="1.4" marker-end="url(#arr)"/>
<text x="782" y="617" font-size="11" fill="#3a4a63">N</text>
<text x="944" y="361" font-size="11" fill="#3a4a63">1</text>
<line x1="1126" y1="177" x2="1180" y2="159" stroke="#8a97ab" stroke-width="1.4" marker-end="url(#arr)"/>
<text x="1138" y="170" font-size="11" fill="#3a4a63">N</text>
<text x="1168" y="160" font-size="11" fill="#3a4a63">1</text>
<line x1="1298" y1="420" x2="1298" y2="228" stroke="#8a97ab" stroke-width="1.4" marker-end="url(#arr)"/>
<text x="1298" y="375" font-size="11" fill="#3a4a63">N</text>
<text x="1298" y="267" font-size="11" fill="#3a4a63">1</text>
<line x1="1416" y1="480" x2="1760" y2="102" stroke="#8a97ab" stroke-width="1.4" marker-end="url(#arr)"/>
<text x="1492" y="394" font-size="11" fill="#3a4a63">N</text>
<text x="1684" y="182" font-size="11" fill="#3a4a63">1</text>
<line x1="1470" y1="120" x2="1416" y2="159" stroke="#8a97ab" stroke-width="1.4" marker-end="url(#arr)"/>
<text x="1458" y="126" font-size="11" fill="#3a4a63">N</text>
<text x="1428" y="147" font-size="11" fill="#3a4a63">1</text>
<line x1="1706" y1="120" x2="1760" y2="102" stroke="#8a97ab" stroke-width="1.4" marker-end="url(#arr)"/>
<text x="1718" y="113" font-size="11" fill="#3a4a63">N</text>
<text x="1748" y="103" font-size="11" fill="#3a4a63">1</text>
<line x1="1706" y1="120" x2="1760" y2="263" stroke="#8a97ab" stroke-width="1.4" marker-end="url(#arr)"/>
<text x="1718" y="148" font-size="11" fill="#3a4a63">N</text>
<text x="1748" y="229" font-size="11" fill="#3a4a63">1</text>
<line x1="1470" y1="409" x2="1416" y2="159" stroke="#8a97ab" stroke-width="1.4" marker-end="url(#arr)"/>
<text x="1458" y="351" font-size="11" fill="#3a4a63">N</text>
<text x="1428" y="211" font-size="11" fill="#3a4a63">1</text>
<line x1="1588" y1="340" x2="1878" y2="144" stroke="#8a97ab" stroke-width="1.4" marker-end="url(#arr)"/>
<text x="1652" y="294" font-size="11" fill="#3a4a63">N</text>
<text x="1814" y="184" font-size="11" fill="#3a4a63">1</text>
<line x1="1706" y1="409" x2="1760" y2="263" stroke="#8a97ab" stroke-width="1.4" marker-end="url(#arr)"/>
<text x="1718" y="374" font-size="11" fill="#3a4a63">N</text>
<text x="1748" y="292" font-size="11" fill="#3a4a63">1</text>
<line x1="1706" y1="709" x2="1760" y2="451" stroke="#8a97ab" stroke-width="1.4" marker-end="url(#arr)"/>
<text x="1718" y="649" font-size="11" fill="#3a4a63">N</text>
<text x="1748" y="505" font-size="11" fill="#3a4a63">1</text>
<line x1="1588" y1="640" x2="1298" y2="228" stroke="#8a97ab" stroke-width="1.4" marker-end="url(#arr)"/>
<text x="1524" y="546" font-size="11" fill="#3a4a63">N</text>
<text x="1362" y="316" font-size="11" fill="#3a4a63">1</text>
<line x1="1588" y1="640" x2="1878" y2="144" stroke="#8a97ab" stroke-width="1.4" marker-end="url(#arr)"/>
<text x="1652" y="528" font-size="11" fill="#3a4a63">N</text>
<text x="1814" y="250" font-size="11" fill="#3a4a63">1</text>
<rect x="30" y="70" width="236" height="120" rx="4" fill="#ffffff" stroke="#1F3864" stroke-width="1.3"/>
<rect x="30" y="70" width="236" height="24" rx="4" fill="#2E4C7E"/>
<rect x="30" y="88" width="236" height="6" fill="#2E4C7E"/>
<text x="148.0" y="86" text-anchor="middle" font-size="12.5" font-weight="bold" fill="#ffffff">usuarios_app</text>
<text x="38" y="107" font-size="11"><tspan font-weight="bold" fill="#b00020">PK </tspan><tspan fill="#222">id</tspan></text>
<rect x="31" y="112" width="234" height="18" fill="#Eef2f8"/>
<text x="38" y="125" font-size="11"><tspan fill="#222">nombre</tspan></text>
<text x="38" y="143" font-size="11"><tspan font-weight="bold" fill="#8a5a00">UQ </tspan><tspan fill="#222">correo</tspan></text>
<rect x="31" y="148" width="234" height="18" fill="#Eef2f8"/>
<text x="38" y="161" font-size="11"><tspan fill="#222">rol</tspan></text>
<text x="38" y="179" font-size="11"><tspan fill="#222">estado</tspan></text>
<rect x="30" y="300" width="236" height="120" rx="4" fill="#ffffff" stroke="#1F3864" stroke-width="1.3"/>
<rect x="30" y="300" width="236" height="24" rx="4" fill="#2E4C7E"/>
<rect x="30" y="318" width="236" height="6" fill="#2E4C7E"/>
<text x="148.0" y="316" text-anchor="middle" font-size="12.5" font-weight="bold" fill="#ffffff">auditoria</text>
<text x="38" y="337" font-size="11"><tspan font-weight="bold" fill="#b00020">PK </tspan><tspan fill="#222">id</tspan></text>
<rect x="31" y="342" width="234" height="18" fill="#Eef2f8"/>
<text x="38" y="355" font-size="11"><tspan font-weight="bold" fill="#0a6b2d">FK </tspan><tspan fill="#222">usuario_id</tspan></text>
<text x="38" y="373" font-size="11"><tspan fill="#222">entidad</tspan></text>
<rect x="31" y="378" width="234" height="18" fill="#Eef2f8"/>
<text x="38" y="391" font-size="11"><tspan fill="#222">accion</tspan></text>
<text x="38" y="409" font-size="11"><tspan fill="#222">detalle</tspan></text>
<rect x="30" y="470" width="236" height="120" rx="4" fill="#ffffff" stroke="#1F3864" stroke-width="1.3"/>
<rect x="30" y="470" width="236" height="24" rx="4" fill="#2E4C7E"/>
<rect x="30" y="488" width="236" height="6" fill="#2E4C7E"/>
<text x="148.0" y="486" text-anchor="middle" font-size="12.5" font-weight="bold" fill="#ffffff">sync_runs</text>
<text x="38" y="507" font-size="11"><tspan font-weight="bold" fill="#b00020">PK </tspan><tspan fill="#222">id</tspan></text>
<rect x="31" y="512" width="234" height="18" fill="#Eef2f8"/>
<text x="38" y="525" font-size="11"><tspan font-weight="bold" fill="#0a6b2d">FK </tspan><tspan fill="#222">usuario_id</tspan></text>
<text x="38" y="543" font-size="11"><tspan fill="#222">estado</tspan></text>
<rect x="31" y="548" width="234" height="18" fill="#Eef2f8"/>
<text x="38" y="561" font-size="11"><tspan fill="#222">pedidos_actualizados</tspan></text>
<text x="38" y="579" font-size="11"><tspan fill="#222">error</tspan></text>
<rect x="30" y="640" width="236" height="102" rx="4" fill="#ffffff" stroke="#1F3864" stroke-width="1.3"/>
<rect x="30" y="640" width="236" height="24" rx="4" fill="#2E4C7E"/>
<rect x="30" y="658" width="236" height="6" fill="#2E4C7E"/>
<text x="148.0" y="656" text-anchor="middle" font-size="12.5" font-weight="bold" fill="#ffffff">sesiones_activas</text>
<text x="38" y="677" font-size="11"><tspan font-weight="bold" fill="#b00020">PK </tspan><tspan fill="#222">user_id</tspan></text>
<rect x="31" y="682" width="234" height="18" fill="#Eef2f8"/>
<text x="38" y="695" font-size="11"><tspan fill="#222">session_id</tspan></text>
<text x="38" y="713" font-size="11"><tspan fill="#222">correo</tspan></text>
<rect x="31" y="718" width="234" height="18" fill="#Eef2f8"/>
<text x="38" y="731" font-size="11"><tspan fill="#222">ultima_actividad</tspan></text>
<rect x="312" y="70" width="236" height="138" rx="4" fill="#ffffff" stroke="#1F3864" stroke-width="1.3"/>
<rect x="312" y="70" width="236" height="24" rx="4" fill="#2E4C7E"/>
<rect x="312" y="88" width="236" height="6" fill="#2E4C7E"/>
<text x="430.0" y="86" text-anchor="middle" font-size="12.5" font-weight="bold" fill="#ffffff">reglas_negocio</text>
<text x="320" y="107" font-size="11"><tspan font-weight="bold" fill="#b00020">PK </tspan><tspan fill="#222">id</tspan></text>
<rect x="313" y="112" width="234" height="18" fill="#Eef2f8"/>
<text x="320" y="125" font-size="11"><tspan fill="#222">nombre</tspan></text>
<text x="320" y="143" font-size="11"><tspan fill="#222">clave</tspan></text>
<rect x="313" y="148" width="234" height="18" fill="#Eef2f8"/>
<text x="320" y="161" font-size="11"><tspan fill="#222">condicion</tspan></text>
<text x="320" y="179" font-size="11"><tspan fill="#222">peso</tspan></text>
<rect x="313" y="184" width="234" height="18" fill="#Eef2f8"/>
<text x="320" y="197" font-size="11"><tspan fill="#222">estado</tspan></text>
<rect x="312" y="300" width="236" height="102" rx="4" fill="#ffffff" stroke="#1F3864" stroke-width="1.3"/>
<rect x="312" y="300" width="236" height="24" rx="4" fill="#2E4C7E"/>
<rect x="312" y="318" width="236" height="6" fill="#2E4C7E"/>
<text x="430.0" y="316" text-anchor="middle" font-size="12.5" font-weight="bold" fill="#ffffff">prioridad_criterios</text>
<text x="320" y="337" font-size="11"><tspan font-weight="bold" fill="#b00020">PK </tspan><tspan fill="#222">clave</tspan></text>
<rect x="313" y="342" width="234" height="18" fill="#Eef2f8"/>
<text x="320" y="355" font-size="11"><tspan fill="#222">etiqueta</tspan></text>
<text x="320" y="373" font-size="11"><tspan fill="#222">orden</tspan></text>
<rect x="313" y="378" width="234" height="18" fill="#Eef2f8"/>
<text x="320" y="391" font-size="11"><tspan fill="#222">activo</tspan></text>
<rect x="312" y="450" width="236" height="138" rx="4" fill="#ffffff" stroke="#1F3864" stroke-width="1.3"/>
<rect x="312" y="450" width="236" height="24" rx="4" fill="#2E4C7E"/>
<rect x="312" y="468" width="236" height="6" fill="#2E4C7E"/>
<text x="430.0" y="466" text-anchor="middle" font-size="12.5" font-weight="bold" fill="#ffffff">reportes_franquiciado</text>
<text x="320" y="487" font-size="11"><tspan font-weight="bold" fill="#b00020">PK </tspan><tspan fill="#222">id</tspan></text>
<rect x="313" y="492" width="234" height="18" fill="#Eef2f8"/>
<text x="320" y="505" font-size="11"><tspan font-weight="bold" fill="#0a6b2d">FK </tspan><tspan fill="#222">pedido_id</tspan></text>
<text x="320" y="523" font-size="11"><tspan fill="#222">motivo</tspan></text>
<rect x="313" y="528" width="234" height="18" fill="#Eef2f8"/>
<text x="320" y="541" font-size="11"><tspan fill="#222">estado</tspan></text>
<text x="320" y="559" font-size="11"><tspan fill="#222">material_reportado</tspan></text>
<rect x="313" y="564" width="234" height="18" fill="#Eef2f8"/>
<text x="320" y="577" font-size="11"><tspan fill="#222">cantidad_defectuosa</tspan></text>
<rect x="312" y="670" width="236" height="138" rx="4" fill="#ffffff" stroke="#1F3864" stroke-width="1.3"/>
<rect x="312" y="670" width="236" height="24" rx="4" fill="#2E4C7E"/>
<rect x="312" y="688" width="236" height="6" fill="#2E4C7E"/>
<text x="430.0" y="686" text-anchor="middle" font-size="12.5" font-weight="bold" fill="#ffffff">reportes_operativos</text>
<text x="320" y="707" font-size="11"><tspan font-weight="bold" fill="#b00020">PK </tspan><tspan fill="#222">id</tspan></text>
<rect x="313" y="712" width="234" height="18" fill="#Eef2f8"/>
<text x="320" y="725" font-size="11"><tspan font-weight="bold" fill="#0a6b2d">FK </tspan><tspan fill="#222">material_id</tspan></text>
<text x="320" y="743" font-size="11"><tspan fill="#222">titulo</tspan></text>
<rect x="313" y="748" width="234" height="18" fill="#Eef2f8"/>
<text x="320" y="761" font-size="11"><tspan fill="#222">tipo</tspan></text>
<text x="320" y="779" font-size="11"><tspan fill="#222">estado</tspan></text>
<rect x="313" y="784" width="234" height="18" fill="#Eef2f8"/>
<text x="320" y="797" font-size="11"><tspan fill="#222">prioridad</tspan></text>
<rect x="600" y="40" width="236" height="210" rx="4" fill="#ffffff" stroke="#1F3864" stroke-width="1.3"/>
<rect x="600" y="40" width="236" height="24" rx="4" fill="#2E4C7E"/>
<rect x="600" y="58" width="236" height="6" fill="#2E4C7E"/>
<text x="718.0" y="56" text-anchor="middle" font-size="12.5" font-weight="bold" fill="#ffffff">pedidos</text>
<text x="608" y="77" font-size="11"><tspan font-weight="bold" fill="#b00020">PK </tspan><tspan fill="#222">id</tspan></text>
<rect x="601" y="82" width="234" height="18" fill="#Eef2f8"/>
<text x="608" y="95" font-size="11"><tspan font-weight="bold" fill="#8a5a00">UQ </tspan><tspan fill="#222">codigo</tspan></text>
<text x="608" y="113" font-size="11"><tspan font-weight="bold" fill="#0a6b2d">FK </tspan><tspan fill="#222">material_id</tspan></text>
<rect x="601" y="118" width="234" height="18" fill="#Eef2f8"/>
<text x="608" y="131" font-size="11"><tspan fill="#222">solicitante</tspan></text>
<text x="608" y="149" font-size="11"><tspan fill="#222">estado</tspan></text>
<rect x="601" y="154" width="234" height="18" fill="#Eef2f8"/>
<text x="608" y="167" font-size="11"><tspan fill="#222">tipo_cliente</tspan></text>
<text x="608" y="185" font-size="11"><tspan fill="#222">fecha_compromiso</tspan></text>
<rect x="601" y="190" width="234" height="18" fill="#Eef2f8"/>
<text x="608" y="203" font-size="11"><tspan fill="#222">prioridad_calculada</tspan></text>
<text x="608" y="221" font-size="11"><tspan fill="#222">suministrador</tspan></text>
<rect x="601" y="226" width="234" height="18" fill="#Eef2f8"/>
<text x="608" y="239" font-size="11"><tspan fill="#222">zona</tspan></text>
<rect x="600" y="400" width="236" height="174" rx="4" fill="#ffffff" stroke="#1F3864" stroke-width="1.3"/>
<rect x="600" y="400" width="236" height="24" rx="4" fill="#2E4C7E"/>
<rect x="600" y="418" width="236" height="6" fill="#2E4C7E"/>
<text x="718.0" y="416" text-anchor="middle" font-size="12.5" font-weight="bold" fill="#ffffff">alertas</text>
<text x="608" y="437" font-size="11"><tspan font-weight="bold" fill="#b00020">PK </tspan><tspan fill="#222">id</tspan></text>
<rect x="601" y="442" width="234" height="18" fill="#Eef2f8"/>
<text x="608" y="455" font-size="11"><tspan font-weight="bold" fill="#0a6b2d">FK </tspan><tspan fill="#222">pedido_id</tspan></text>
<text x="608" y="473" font-size="11"><tspan font-weight="bold" fill="#0a6b2d">FK </tspan><tspan fill="#222">material_id</tspan></text>
<rect x="601" y="478" width="234" height="18" fill="#Eef2f8"/>
<text x="608" y="491" font-size="11"><tspan font-weight="bold" fill="#0a6b2d">FK </tspan><tspan fill="#222">regla_id</tspan></text>
<text x="608" y="509" font-size="11"><tspan fill="#222">tipo_alerta</tspan></text>
<rect x="601" y="514" width="234" height="18" fill="#Eef2f8"/>
<text x="608" y="527" font-size="11"><tspan fill="#222">nivel</tspan></text>
<text x="608" y="545" font-size="11"><tspan fill="#222">estado</tspan></text>
<rect x="601" y="550" width="234" height="18" fill="#Eef2f8"/>
<text x="608" y="563" font-size="11"><tspan fill="#222">mensaje</tspan></text>
<rect x="600" y="720" width="236" height="138" rx="4" fill="#ffffff" stroke="#1F3864" stroke-width="1.3"/>
<rect x="600" y="720" width="236" height="24" rx="4" fill="#2E4C7E"/>
<rect x="600" y="738" width="236" height="6" fill="#2E4C7E"/>
<text x="718.0" y="736" text-anchor="middle" font-size="12.5" font-weight="bold" fill="#ffffff">notificaciones_correo</text>
<text x="608" y="757" font-size="11"><tspan font-weight="bold" fill="#b00020">PK </tspan><tspan fill="#222">id</tspan></text>
<rect x="601" y="762" width="234" height="18" fill="#Eef2f8"/>
<text x="608" y="775" font-size="11"><tspan font-weight="bold" fill="#0a6b2d">FK </tspan><tspan fill="#222">alerta_id</tspan></text>
<text x="608" y="793" font-size="11"><tspan font-weight="bold" fill="#0a6b2d">FK </tspan><tspan fill="#222">pedido_id</tspan></text>
<rect x="601" y="798" width="234" height="18" fill="#Eef2f8"/>
<text x="608" y="811" font-size="11"><tspan font-weight="bold" fill="#0a6b2d">FK </tspan><tspan fill="#222">material_id</tspan></text>
<text x="608" y="829" font-size="11"><tspan fill="#222">destinatario</tspan></text>
<rect x="601" y="834" width="234" height="18" fill="#Eef2f8"/>
<text x="608" y="847" font-size="11"><tspan fill="#222">estado</tspan></text>
<rect x="890" y="90" width="236" height="174" rx="4" fill="#ffffff" stroke="#1F3864" stroke-width="1.3"/>
<rect x="890" y="90" width="236" height="24" rx="4" fill="#2E4C7E"/>
<rect x="890" y="108" width="236" height="6" fill="#2E4C7E"/>
<text x="1008.0" y="106" text-anchor="middle" font-size="12.5" font-weight="bold" fill="#ffffff">materiales</text>
<text x="898" y="127" font-size="11"><tspan font-weight="bold" fill="#b00020">PK </tspan><tspan fill="#222">id</tspan></text>
<rect x="891" y="132" width="234" height="18" fill="#Eef2f8"/>
<text x="898" y="145" font-size="11"><tspan font-weight="bold" fill="#0a6b2d">FK </tspan><tspan fill="#222">codigo_material</tspan></text>
<text x="898" y="163" font-size="11"><tspan fill="#222">nombre</tspan></text>
<rect x="891" y="168" width="234" height="18" fill="#Eef2f8"/>
<text x="898" y="181" font-size="11"><tspan fill="#222">categoria</tspan></text>
<text x="898" y="199" font-size="11"><tspan fill="#222">stock_actual</tspan></text>
<rect x="891" y="204" width="234" height="18" fill="#Eef2f8"/>
<text x="898" y="217" font-size="11"><tspan fill="#222">stock_minimo</tspan></text>
<text x="898" y="235" font-size="11"><tspan fill="#222">es_critico</tspan></text>
<rect x="891" y="240" width="234" height="18" fill="#Eef2f8"/>
<text x="898" y="253" font-size="11"><tspan fill="#222">estado</tspan></text>
<rect x="890" y="430" width="236" height="138" rx="4" fill="#ffffff" stroke="#1F3864" stroke-width="1.3"/>
<rect x="890" y="430" width="236" height="24" rx="4" fill="#2E4C7E"/>
<rect x="890" y="448" width="236" height="6" fill="#2E4C7E"/>
<text x="1008.0" y="446" text-anchor="middle" font-size="12.5" font-weight="bold" fill="#ffffff">movimientos_inventario</text>
<text x="898" y="467" font-size="11"><tspan font-weight="bold" fill="#b00020">PK </tspan><tspan fill="#222">id</tspan></text>
<rect x="891" y="472" width="234" height="18" fill="#Eef2f8"/>
<text x="898" y="485" font-size="11"><tspan font-weight="bold" fill="#0a6b2d">FK </tspan><tspan fill="#222">material_id</tspan></text>
<text x="898" y="503" font-size="11"><tspan fill="#222">tipo</tspan></text>
<rect x="891" y="508" width="234" height="18" fill="#Eef2f8"/>
<text x="898" y="521" font-size="11"><tspan fill="#222">cantidad</tspan></text>
<text x="898" y="539" font-size="11"><tspan fill="#222">stock_anterior</tspan></text>
<rect x="891" y="544" width="234" height="18" fill="#Eef2f8"/>
<text x="898" y="557" font-size="11"><tspan fill="#222">stock_nuevo</tspan></text>
<rect x="1180" y="90" width="236" height="138" rx="4" fill="#ffffff" stroke="#1F3864" stroke-width="1.3"/>
<rect x="1180" y="90" width="236" height="24" rx="4" fill="#2E4C7E"/>
<rect x="1180" y="108" width="236" height="6" fill="#2E4C7E"/>
<text x="1298.0" y="106" text-anchor="middle" font-size="12.5" font-weight="bold" fill="#ffffff">material_catalogo</text>
<text x="1188" y="127" font-size="11"><tspan font-weight="bold" fill="#b00020">PK </tspan><tspan fill="#222">codigo_material</tspan></text>
<rect x="1181" y="132" width="234" height="18" fill="#Eef2f8"/>
<text x="1188" y="145" font-size="11"><tspan fill="#222">nombre_material</tspan></text>
<text x="1188" y="163" font-size="11"><tspan fill="#222">catman_nombre</tspan></text>
<rect x="1181" y="168" width="234" height="18" fill="#Eef2f8"/>
<text x="1188" y="181" font-size="11"><tspan fill="#222">codigo_suministrador</tspan></text>
<text x="1188" y="199" font-size="11"><tspan fill="#222">nombre_suministrador</tspan></text>
<rect x="1181" y="204" width="234" height="18" fill="#Eef2f8"/>
<text x="1188" y="217" font-size="11"><tspan fill="#222">estado_planificacion</tspan></text>
<rect x="1180" y="420" width="236" height="120" rx="4" fill="#ffffff" stroke="#1F3864" stroke-width="1.3"/>
<rect x="1180" y="420" width="236" height="24" rx="4" fill="#2E4C7E"/>
<rect x="1180" y="438" width="236" height="6" fill="#2E4C7E"/>
<text x="1298.0" y="436" text-anchor="middle" font-size="12.5" font-weight="bold" fill="#ffffff">inventario_bodega</text>
<text x="1188" y="457" font-size="11"><tspan font-weight="bold" fill="#0a6b2d">FK </tspan><tspan fill="#222">centro_codigo</tspan></text>
<rect x="1181" y="462" width="234" height="18" fill="#Eef2f8"/>
<text x="1188" y="475" font-size="11"><tspan font-weight="bold" fill="#0a6b2d">FK </tspan><tspan fill="#222">codigo_material</tspan></text>
<text x="1188" y="493" font-size="11"><tspan fill="#222">stock_disponible</tspan></text>
<rect x="1181" y="498" width="234" height="18" fill="#Eef2f8"/>
<text x="1188" y="511" font-size="11"><tspan fill="#222">bloqueado</tspan></text>
<text x="1188" y="529" font-size="11"><tspan fill="#222">comprometido_ped_vta</tspan></text>
<rect x="1470" y="60" width="236" height="120" rx="4" fill="#ffffff" stroke="#1F3864" stroke-width="1.3"/>
<rect x="1470" y="60" width="236" height="24" rx="4" fill="#2E4C7E"/>
<rect x="1470" y="78" width="236" height="6" fill="#2E4C7E"/>
<text x="1588.0" y="76" text-anchor="middle" font-size="12.5" font-weight="bold" fill="#ffffff">transito_bodega</text>
<text x="1478" y="97" font-size="11"><tspan font-weight="bold" fill="#b00020">PK </tspan><tspan fill="#222">transito_linea_key</tspan></text>
<rect x="1471" y="102" width="234" height="18" fill="#Eef2f8"/>
<text x="1478" y="115" font-size="11"><tspan font-weight="bold" fill="#0a6b2d">FK </tspan><tspan fill="#222">centro_codigo</tspan></text>
<text x="1478" y="133" font-size="11"><tspan font-weight="bold" fill="#0a6b2d">FK </tspan><tspan fill="#222">codigo_material</tspan></text>
<rect x="1471" y="138" width="234" height="18" fill="#Eef2f8"/>
<text x="1478" y="151" font-size="11"><tspan font-weight="bold" fill="#0a6b2d">FK </tspan><tspan fill="#222">codigo_proveedor</tspan></text>
<text x="1478" y="169" font-size="11"><tspan fill="#222">cantidad_por_entregar</tspan></text>
<rect x="1470" y="340" width="236" height="138" rx="4" fill="#ffffff" stroke="#1F3864" stroke-width="1.3"/>
<rect x="1470" y="340" width="236" height="24" rx="4" fill="#2E4C7E"/>
<rect x="1470" y="358" width="236" height="6" fill="#2E4C7E"/>
<text x="1588.0" y="356" text-anchor="middle" font-size="12.5" font-weight="bold" fill="#ffffff">oc_pendientes_bodega</text>
<text x="1478" y="377" font-size="11"><tspan font-weight="bold" fill="#b00020">PK </tspan><tspan fill="#222">oc_linea_key</tspan></text>
<rect x="1471" y="382" width="234" height="18" fill="#Eef2f8"/>
<text x="1478" y="395" font-size="11"><tspan font-weight="bold" fill="#0a6b2d">FK </tspan><tspan fill="#222">centro_codigo</tspan></text>
<text x="1478" y="413" font-size="11"><tspan font-weight="bold" fill="#0a6b2d">FK </tspan><tspan fill="#222">codigo_material</tspan></text>
<rect x="1471" y="418" width="234" height="18" fill="#Eef2f8"/>
<text x="1478" y="431" font-size="11"><tspan font-weight="bold" fill="#0a6b2d">FK </tspan><tspan fill="#222">codigo_proveedor</tspan></text>
<text x="1478" y="449" font-size="11"><tspan fill="#222">cantidad_por_entregar</tspan></text>
<rect x="1471" y="454" width="234" height="18" fill="#Eef2f8"/>
<text x="1478" y="467" font-size="11"><tspan fill="#222">valor_neto</tspan></text>
<rect x="1470" y="640" width="236" height="138" rx="4" fill="#ffffff" stroke="#1F3864" stroke-width="1.3"/>
<rect x="1470" y="640" width="236" height="24" rx="4" fill="#2E4C7E"/>
<rect x="1470" y="658" width="236" height="6" fill="#2E4C7E"/>
<text x="1588.0" y="656" text-anchor="middle" font-size="12.5" font-weight="bold" fill="#ffffff">pedidos_bodega_fq</text>
<text x="1478" y="677" font-size="11"><tspan font-weight="bold" fill="#b00020">PK </tspan><tspan fill="#222">pedido_key</tspan></text>
<rect x="1471" y="682" width="234" height="18" fill="#Eef2f8"/>
<text x="1478" y="695" font-size="11"><tspan font-weight="bold" fill="#0a6b2d">FK </tspan><tspan fill="#222">codigo_cliente</tspan></text>
<text x="1478" y="713" font-size="11"><tspan font-weight="bold" fill="#0a6b2d">FK </tspan><tspan fill="#222">codigo_material</tspan></text>
<rect x="1471" y="718" width="234" height="18" fill="#Eef2f8"/>
<text x="1478" y="731" font-size="11"><tspan font-weight="bold" fill="#0a6b2d">FK </tspan><tspan fill="#222">centro_codigo</tspan></text>
<text x="1478" y="749" font-size="11"><tspan fill="#222">estado</tspan></text>
<rect x="1471" y="754" width="234" height="18" fill="#Eef2f8"/>
<text x="1478" y="767" font-size="11"><tspan fill="#222">prioridad_calculada</tspan></text>
<rect x="1760" y="60" width="236" height="84" rx="4" fill="#ffffff" stroke="#1F3864" stroke-width="1.3"/>
<rect x="1760" y="60" width="236" height="24" rx="4" fill="#2E4C7E"/>
<rect x="1760" y="78" width="236" height="6" fill="#2E4C7E"/>
<text x="1878.0" y="76" text-anchor="middle" font-size="12.5" font-weight="bold" fill="#ffffff">centros_bodega</text>
<text x="1768" y="97" font-size="11"><tspan font-weight="bold" fill="#b00020">PK </tspan><tspan fill="#222">centro_codigo</tspan></text>
<rect x="1761" y="102" width="234" height="18" fill="#Eef2f8"/>
<text x="1768" y="115" font-size="11"><tspan fill="#222">nombre_centro</tspan></text>
<text x="1768" y="133" font-size="11"><tspan fill="#222">sociedad</tspan></text>
<rect x="1760" y="230" width="236" height="66" rx="4" fill="#ffffff" stroke="#1F3864" stroke-width="1.3"/>
<rect x="1760" y="230" width="236" height="24" rx="4" fill="#2E4C7E"/>
<rect x="1760" y="248" width="236" height="6" fill="#2E4C7E"/>
<text x="1878.0" y="246" text-anchor="middle" font-size="12.5" font-weight="bold" fill="#ffffff">proveedores_operativos</text>
<text x="1768" y="267" font-size="11"><tspan font-weight="bold" fill="#b00020">PK </tspan><tspan fill="#222">codigo_proveedor</tspan></text>
<rect x="1761" y="272" width="234" height="18" fill="#Eef2f8"/>
<text x="1768" y="285" font-size="11"><tspan fill="#222">nombre_proveedor</tspan></text>
<rect x="1760" y="400" width="236" height="102" rx="4" fill="#ffffff" stroke="#1F3864" stroke-width="1.3"/>
<rect x="1760" y="400" width="236" height="24" rx="4" fill="#2E4C7E"/>
<rect x="1760" y="418" width="236" height="6" fill="#2E4C7E"/>
<text x="1878.0" y="416" text-anchor="middle" font-size="12.5" font-weight="bold" fill="#ffffff">clientes_franquiciado</text>
<text x="1768" y="437" font-size="11"><tspan font-weight="bold" fill="#b00020">PK </tspan><tspan fill="#222">codigo_cliente</tspan></text>
<rect x="1761" y="442" width="234" height="18" fill="#Eef2f8"/>
<text x="1768" y="455" font-size="11"><tspan fill="#222">nombre_cliente</tspan></text>
<text x="1768" y="473" font-size="11"><tspan fill="#222">zona_cliente</tspan></text>
<rect x="1761" y="478" width="234" height="18" fill="#Eef2f8"/>
<text x="1768" y="491" font-size="11"><tspan fill="#222">zona</tspan></text>
<rect x="1760" y="600" width="236" height="102" rx="4" fill="#ffffff" stroke="#1F3864" stroke-width="1.3"/>
<rect x="1760" y="600" width="236" height="24" rx="4" fill="#2E4C7E"/>
<rect x="1760" y="618" width="236" height="6" fill="#2E4C7E"/>
<text x="1878.0" y="616" text-anchor="middle" font-size="12.5" font-weight="bold" fill="#ffffff">cliente_sla</text>
<text x="1768" y="637" font-size="11"><tspan font-weight="bold" fill="#b00020">PK </tspan><tspan fill="#222">codigo_cliente</tspan></text>
<rect x="1761" y="642" width="234" height="18" fill="#Eef2f8"/>
<text x="1768" y="655" font-size="11"><tspan fill="#222">sla_texto</tspan></text>
<text x="1768" y="673" font-size="11"><tspan fill="#222">dias_semana</tspan></text>
<rect x="1761" y="678" width="234" height="18" fill="#Eef2f8"/>
<text x="1768" y="691" font-size="11"><tspan fill="#222">horas_frecuencia</tspan></text>
</svg>